<svg width="1663" height="688" viewBox="0 0 1663 688" fill="none" xmlns="http://www.w3.org/2000/svg">
<g opacity="0.13">
<path d="M33.9507 25.3749L33.4508 26.2327L33.0829 70.421C33.0815 70.5945 33.0781 71.0011 33.5793 71.2932C34.0804 71.5854 34.4325 71.3821 34.5829 71.2953L73.4028 48.8826C73.5531 48.7958 73.9052 48.5925 73.9028 48.0124C73.9004 47.4323 73.5466 47.232 73.3956 47.1464L34.9435 25.3708C34.7946 25.2865 34.4459 25.089 33.9507 25.3749ZM28.9507 16.7147C32.1348 14.8764 36.2224 14.6029 39.8712 16.6692L78.3233 38.4448C85.7271 42.6376 85.7714 53.2886 78.4028 57.5428L39.5829 79.9555C32.2142 84.2098 23.0124 78.8459 23.0833 70.3377L23.4511 26.1494C23.486 21.9563 25.7666 18.553 28.9507 16.7147Z" fill="#2FD8F9"/>
</g>
<g opacity="0.16">
<path d="M1353.72 34.6423L1332.54 55.822L1353.72 77.0007" stroke="#FFBA00" stroke-width="10"/>
<path d="M1408.94 34.6423L1430.12 55.822L1408.94 77.0007" stroke="#FFBA00" stroke-width="10"/>
<path d="M1394.53 33.8103L1368.64 77.4167" stroke="#FFBA00" stroke-width="10"/>
</g>
<g opacity="0.162">
<path d="M1247.73 626.272L1298.28 676.821" stroke="#FF48FF" stroke-width="11"/>
<path d="M1298.28 626.272L1247.73 676.821" stroke="#FF48FF" stroke-width="11"/>
<path d="M1273.01 615.803V687.29" stroke="#FF48FF" stroke-width="11"/>
<path d="M1308.75 651.547H1237.26" stroke="#FF48FF" stroke-width="11"/>
</g>
<path d="M288.014 488.999V448.999H303.795C306.829 448.999 309.413 449.578 311.549 450.737C313.684 451.883 315.312 453.478 316.432 455.522C317.564 457.553 318.131 459.897 318.131 462.553C318.131 465.21 317.558 467.553 316.412 469.585C315.266 471.616 313.606 473.198 311.432 474.331C309.27 475.464 306.653 476.03 303.58 476.03H293.521V469.253H302.213C303.84 469.253 305.182 468.973 306.236 468.413C307.304 467.84 308.098 467.052 308.619 466.05C309.153 465.034 309.42 463.869 309.42 462.553C309.42 461.225 309.153 460.066 308.619 459.077C308.098 458.074 307.304 457.3 306.236 456.753C305.169 456.193 303.814 455.913 302.174 455.913H296.471V488.999H288.014ZM328.604 500.249C327.55 500.249 326.56 500.164 325.636 499.995C324.724 499.839 323.969 499.637 323.37 499.389L325.245 493.178C326.222 493.478 327.101 493.641 327.882 493.667C328.676 493.693 329.36 493.51 329.933 493.12C330.519 492.729 330.994 492.065 331.358 491.128L331.847 489.858L321.085 458.999H329.835L336.046 481.03H336.358L342.628 458.999H351.437L339.776 492.241C339.216 493.856 338.455 495.262 337.491 496.46C336.541 497.671 335.336 498.602 333.878 499.253C332.42 499.917 330.662 500.249 328.604 500.249ZM371.651 458.999V465.249H353.585V458.999H371.651ZM357.687 451.811H366.007V479.78C366.007 480.548 366.124 481.147 366.358 481.577C366.593 481.994 366.918 482.287 367.335 482.456C367.765 482.625 368.259 482.71 368.819 482.71C369.21 482.71 369.601 482.677 369.991 482.612C370.382 482.534 370.681 482.475 370.89 482.436L372.198 488.628C371.782 488.758 371.196 488.908 370.44 489.077C369.685 489.259 368.767 489.37 367.687 489.409C365.681 489.487 363.924 489.22 362.413 488.608C360.916 487.996 359.75 487.046 358.917 485.757C358.084 484.467 357.674 482.84 357.687 480.874V451.811ZM386.036 471.655V488.999H377.716V448.999H385.802V464.292H386.153C386.83 462.521 387.924 461.134 389.435 460.132C390.945 459.116 392.84 458.608 395.118 458.608C397.201 458.608 399.018 459.064 400.567 459.975C402.13 460.874 403.341 462.169 404.2 463.862C405.073 465.542 405.502 467.553 405.489 469.897V488.999H397.169V471.382C397.182 469.533 396.713 468.094 395.763 467.065C394.825 466.037 393.51 465.522 391.817 465.522C390.685 465.522 389.682 465.763 388.81 466.245C387.95 466.727 387.273 467.43 386.778 468.354C386.297 469.266 386.049 470.366 386.036 471.655ZM425.592 489.585C422.558 489.585 419.934 488.94 417.721 487.651C415.52 486.349 413.821 484.539 412.623 482.221C411.425 479.891 410.826 477.189 410.826 474.116C410.826 471.017 411.425 468.309 412.623 465.991C413.821 463.66 415.52 461.85 417.721 460.561C419.934 459.259 422.558 458.608 425.592 458.608C428.626 458.608 431.243 459.259 433.443 460.561C435.657 461.85 437.363 463.66 438.561 465.991C439.758 468.309 440.357 471.017 440.357 474.116C440.357 477.189 439.758 479.891 438.561 482.221C437.363 484.539 435.657 486.349 433.443 487.651C431.243 488.94 428.626 489.585 425.592 489.585ZM425.631 483.139C427.011 483.139 428.163 482.749 429.088 481.967C430.012 481.173 430.709 480.092 431.178 478.725C431.66 477.358 431.9 475.802 431.9 474.057C431.9 472.313 431.66 470.757 431.178 469.389C430.709 468.022 430.012 466.941 429.088 466.147C428.163 465.353 427.011 464.956 425.631 464.956C424.238 464.956 423.066 465.353 422.115 466.147C421.178 466.941 420.468 468.022 419.986 469.389C419.518 470.757 419.283 472.313 419.283 474.057C419.283 475.802 419.518 477.358 419.986 478.725C420.468 480.092 421.178 481.173 422.115 481.967C423.066 482.749 424.238 483.139 425.631 483.139ZM454.088 471.655V488.999H445.768V458.999H453.697V464.292H454.049C454.713 462.547 455.826 461.167 457.389 460.151C458.951 459.122 460.846 458.608 463.072 458.608C465.156 458.608 466.972 459.064 468.521 459.975C470.071 460.887 471.275 462.189 472.135 463.882C472.994 465.561 473.424 467.566 473.424 469.897V488.999H465.104V471.382C465.117 469.546 464.648 468.113 463.697 467.085C462.747 466.043 461.438 465.522 459.771 465.522C458.652 465.522 457.662 465.763 456.803 466.245C455.956 466.727 455.292 467.43 454.811 468.354C454.342 469.266 454.101 470.366 454.088 471.655Z" fill="#F0F3F4"/>
<path d="M1547.31 218.811H1538.75C1538.6 217.704 1538.28 216.721 1537.79 215.862C1537.31 214.99 1536.69 214.247 1535.94 213.635C1535.18 213.023 1534.31 212.555 1533.32 212.229C1532.35 211.904 1531.28 211.741 1530.14 211.741C1528.07 211.741 1526.26 212.255 1524.73 213.284C1523.19 214.3 1522 215.784 1521.15 217.737C1520.31 219.677 1519.88 222.034 1519.88 224.807C1519.88 227.659 1520.31 230.055 1521.15 231.995C1522.01 233.935 1523.21 235.4 1524.75 236.389C1526.28 237.379 1528.06 237.874 1530.08 237.874C1531.21 237.874 1532.26 237.724 1533.22 237.425C1534.2 237.125 1535.07 236.689 1535.82 236.116C1536.58 235.53 1537.2 234.82 1537.7 233.987C1538.21 233.154 1538.56 232.203 1538.75 231.135L1547.31 231.175C1547.09 233.01 1546.53 234.781 1545.65 236.487C1544.77 238.18 1543.6 239.697 1542.11 241.038C1540.64 242.366 1538.88 243.421 1536.84 244.202C1534.81 244.97 1532.51 245.354 1529.94 245.354C1526.38 245.354 1523.19 244.547 1520.37 242.932C1517.57 241.318 1515.36 238.981 1513.73 235.921C1512.12 232.861 1511.31 229.156 1511.31 224.807C1511.31 220.445 1512.13 216.734 1513.77 213.675C1515.41 210.615 1517.64 208.284 1520.45 206.682C1523.26 205.068 1526.43 204.26 1529.94 204.26C1532.26 204.26 1534.41 204.586 1536.39 205.237C1538.38 205.888 1540.15 206.839 1541.68 208.089C1543.22 209.326 1544.47 210.842 1545.43 212.639C1546.41 214.436 1547.03 216.494 1547.31 218.811ZM1565.09 238.714V211.057H1572.08V238.714H1565.09ZM1554.76 228.382V221.389H1582.41V228.382H1554.76ZM1602.47 238.714V211.057H1609.46V238.714H1602.47ZM1592.14 228.382V221.389H1619.8V228.382H1592.14Z" fill="#F0F3F4"/>
<mask id="mask0_1284_42101" style="mask-type:luminance" maskUnits="userSpaceOnUse" x="236" y="248" width="70" height="62">
<path d="M305.267 248.135H236.002V309.479H305.267V248.135Z" fill="white"/>
</mask>
<g mask="url(#mask0_1284_42101)">
<path d="M245.833 252.837C244.3 254.837 243.533 257.862 243.533 261.914V266.657C243.588 268.032 243.347 269.404 242.828 270.679C242.349 271.7 241.503 272.503 240.458 272.928C239.037 273.467 237.521 273.715 236.002 273.656V283.937C237.523 283.877 239.04 284.125 240.462 284.666C241.507 285.09 242.353 285.892 242.832 286.914C243.353 288.197 243.593 289.577 243.537 290.961V295.699C243.537 299.751 244.304 302.777 245.837 304.778C247.278 306.719 249.363 308.084 251.719 308.629C254.93 309.273 258.202 309.559 261.476 309.48V300.926C260.014 300.998 258.553 300.766 257.186 300.244C256.73 300.052 256.319 299.769 255.978 299.412C255.637 299.054 255.372 298.63 255.202 298.167C254.819 296.938 254.646 295.653 254.692 294.367V287.972C254.727 286.237 254.193 284.539 253.172 283.137C252.159 281.76 250.279 280.654 247.533 279.819C246.915 279.632 246.233 279.468 245.504 279.319V278.275C246.189 278.139 246.866 277.968 247.533 277.764C250.28 276.906 252.159 275.797 253.172 274.435C254.196 273.042 254.73 271.35 254.692 269.622V263.23C254.645 261.945 254.817 260.663 255.202 259.437C255.375 258.974 255.639 258.552 255.979 258.195C256.32 257.837 256.729 257.553 257.182 257.358C258.547 256.828 260.009 256.592 261.472 256.665V248.137C258.198 248.058 254.926 248.343 251.715 248.988C249.359 249.531 247.274 250.896 245.833 252.837Z" fill="#D9FFCB"/>
<path d="M300.808 272.952C299.763 272.528 298.916 271.725 298.438 270.704C297.919 269.42 297.68 268.04 297.738 266.657V261.918C297.738 257.867 296.971 254.841 295.438 252.841C293.997 250.898 291.912 249.532 289.556 248.988C286.344 248.343 283.071 248.058 279.797 248.137V256.693C281.258 256.62 282.719 256.852 284.086 257.373C284.541 257.565 284.951 257.849 285.292 258.206C285.633 258.563 285.896 258.987 286.067 259.451C286.45 260.679 286.623 261.964 286.578 263.251V269.647C286.542 271.382 287.075 273.081 288.097 274.484C289.109 275.862 290.988 276.968 293.735 277.802C294.354 277.989 295.035 278.153 295.766 278.302V279.347C295.036 279.497 294.354 279.665 293.735 279.858C290.99 280.718 289.11 281.828 288.097 283.188C287.074 284.58 286.539 286.272 286.578 288V294.392C286.624 295.675 286.452 296.958 286.067 298.184C285.894 298.646 285.63 299.068 285.289 299.426C284.949 299.783 284.539 300.067 284.086 300.262C282.721 300.792 281.259 301.028 279.797 300.955V309.486C283.071 309.565 286.344 309.279 289.556 308.635C291.911 308.09 293.996 306.725 295.437 304.784C296.97 302.784 297.737 299.757 297.737 295.705V290.961C297.681 289.585 297.92 288.214 298.437 286.939C298.915 285.917 299.762 285.115 300.807 284.691C302.23 284.15 303.747 283.902 305.268 283.962V273.681C303.747 273.741 302.231 273.493 300.808 272.952Z" fill="#D9FFCB"/>
</g>
<g opacity="0.435">
<path d="M91.369 639.464H81.002V667.625H91.369V639.464Z" fill="#C3D5FF"/>
<path d="M142.465 653.546H132.098V667.627H142.465V653.546Z" fill="#C3D5FF"/>
<path d="M108.4 606.803H98.0332V667.626H108.4V606.803Z" fill="#C3D5FF"/>
<path d="M125.433 623.132H115.066V667.624H125.433V623.132Z" fill="#C3D5FF"/>
</g>
<mask id="mask1_1284_42101" style="mask-type:luminance" maskUnits="userSpaceOnUse" x="1598" y="524" width="65" height="65">
<path d="M1662.44 524.807H1598.54V588.712H1662.44V524.807Z" fill="white"/>
</mask>
<g mask="url(#mask1_1284_42101)">
<path d="M1655.37 570.678C1650.23 575.823 1643.25 578.713 1635.97 578.713C1628.69 578.713 1621.72 575.823 1616.57 570.678C1611.43 565.532 1608.54 558.554 1608.54 551.278C1608.54 544.001 1611.43 537.023 1616.57 531.878" stroke="#FFECE5" stroke-width="13" stroke-miterlimit="10"/>
</g>
</svg>
