<?xml version="1.0" encoding="UTF-8"?>
<svg id="_레이어_2" data-name="레이어 2" xmlns="http://www.w3.org/2000/svg" viewBox="0 0 448.48 126.14">
  <defs>
    <style>
      .cls-1 {
        fill: #924eff;
      }
    </style>
  </defs>
  <g id="Layer_1" data-name="Layer 1">
    <g>
      <g>
        <path class="cls-1" d="M286.5,64.06l20.76-31.84c5.63-8.64,3.19-20.2-5.44-25.83-8.64-5.63-20.2-3.19-25.83,5.44l-21.31,32.69h-12.12V21.61c0-10.74-8.71-19.45-19.45-19.45s-19.45,8.71-19.45,19.45V106.56c0,10.74,8.71,19.45,19.45,19.45s19.45-8.71,19.45-19.45v-24.71h11.04l22.19,35.51c3.54,5.67,9.62,8.78,15.85,8.78,3.38,0,6.8-.92,9.88-2.84,8.74-5.46,11.4-16.98,5.94-25.72l-20.95-33.52Z"/>
        <path class="cls-1" d="M163.04,5.74c-21.24-4.03-32.39,13.05-35.42,29-2.89,15.24-1.7,35.39-.73,48.99,.97,13.61,.73,25.81-14.87,25.81h-9.93c4.99-6.64,7.95-14.89,7.95-23.82,0-14.31-7.6-26.87-18.97-33.87,.95-3.41,1.47-7,1.47-10.71C92.54,19.23,74.71,1.4,52.8,1.4h-12.39C18.13,1.4,0,19.52,0,41.8v47.79c0,19.77,16.09,35.93,35.86,35.93H114.17c19.47,0,25.84-2.56,34.1-8.57,11.85-8.63,22.21-28.26,25.46-35.54,5.18-11.05,9.38-23.69,11.66-35.73,3.03-15.95-1.1-35.92-22.34-39.95Zm.02,60.79c-.16,.59-.54,1.09-1.08,1.4l-7.72,4.43,5.56,6.95c.38,.48,.56,1.08,.49,1.69s-.37,1.16-.85,1.54c-.41,.33-.92,.5-1.44,.5-.14,0-.29-.01-.43-.04-.54-.1-1.03-.39-1.37-.82l-6.01-7.51-8.34,4.79c-.48,.27-1.04,.37-1.57,.27-.66-.13-1.23-.53-1.57-1.12-.31-.53-.39-1.15-.23-1.75,.16-.59,.54-1.09,1.08-1.4l7.72-4.43-5.56-6.95c-.38-.48-.56-1.08-.49-1.69,.07-.61,.37-1.16,.85-1.54,.99-.79,2.44-.63,3.24,.36l6.01,7.51,8.34-4.79c1.1-.63,2.51-.25,3.14,.85,.31,.53,.39,1.15,.23,1.75Zm5.94-31.3c-.16,.59-.54,1.09-1.08,1.4l-7.72,4.43,5.56,6.95c.38,.48,.56,1.08,.49,1.69-.07,.61-.37,1.16-.85,1.54-.41,.33-.92,.5-1.44,.5-.14,0-.29-.01-.43-.04-.54-.1-1.02-.39-1.37-.82l-6.01-7.51-8.34,4.79c-.48,.27-1.04,.37-1.57,.27-.66-.13-1.23-.53-1.57-1.12-.31-.53-.39-1.15-.23-1.75,.16-.59,.54-1.09,1.08-1.4l7.72-4.43-5.56-6.95c-.38-.48-.56-1.08-.49-1.69s.37-1.16,.85-1.54c.99-.79,2.44-.63,3.24,.36l6.01,7.51,8.34-4.79c1.1-.63,2.51-.25,3.14,.85,.31,.53,.39,1.15,.23,1.75Z"/>
        <path class="cls-1" d="M428.32,34.17c-5.26-3.89-7.29-10.49-5.64-16.44-5.2,3.32-12.11,3.31-17.37-.58-5-3.7-7.09-9.87-5.86-15.58-4.49-1.02-9.15-1.57-13.94-1.57-34.72,0-62.97,28.25-62.97,62.97s28.25,62.97,62.97,62.97,62.97-28.25,62.97-62.97c0-9.53-2.14-18.57-5.95-26.67-4.64,1.63-9.97,1.01-14.22-2.13Z"/>
      </g>
    </g>
  </g>
</svg>