<svg width="320" height="70" viewBox="0 0 320 70" fill="none" xmlns="http://www.w3.org/2000/svg">
<path d="M153.716 18.5078V34.5234H136.333V18.5078H153.716ZM141.255 22.4922V30.5391H148.755V22.4922H141.255ZM164.302 16.0859V36.9844H159.302V16.0859H164.302ZM152.231 37.6094C159.692 37.6094 164.419 40.1875 164.419 44.6016C164.419 49.0156 159.692 51.5938 152.231 51.5938C144.653 51.5938 139.927 49.0156 139.927 44.6016C139.927 40.1875 144.653 37.6094 152.231 37.6094ZM152.231 41.5156C147.427 41.4766 144.966 42.4531 144.966 44.6016C144.966 46.6719 147.427 47.7266 152.231 47.7266C156.919 47.7266 159.458 46.6719 159.458 44.6016C159.458 42.4531 156.919 41.4766 152.231 41.5156Z" fill="white"/>
<path d="M115.658 19.4844V33.1953H106.947V39.5625C110.326 39.5234 113.548 39.3867 117.181 38.8203L117.533 42.8047C112.884 43.5859 109.056 43.7031 104.642 43.7031H102.181V29.2109H110.853V23.5078H102.142V19.4844H115.658ZM131.908 16.0469V51.5938H127.181V33.5078H123.744V49.875H119.173V16.6328H123.744V29.4844H127.181V16.0469H131.908Z" fill="white"/>
<path d="M96.2329 19.3281V23.5859C96.2329 28.4688 96.2329 33.3125 94.9438 40.6562L89.9048 40.2266C91.2329 33.3906 91.2329 28.3125 91.272 23.5859V23.3125H71.1548V19.3281H96.2329ZM100.217 42.8438V46.9453H67.7954V42.8438H100.217Z" fill="white"/>
<path d="M66.9639 43.5469V47.6484H34.4248V43.5469H48.1357V38.1953H38.1748V26.2422H58.292V22.3359H38.1357V18.3516H63.2139V30.1484H43.1748V34.1328H64.0342V38.1953H53.0967V43.5469H66.9639Z" fill="white"/>
<path d="M33.5938 43.3125V47.4531H1.05469V43.3125H33.5938ZM30.8594 19.1719V23.1562H25.8594V33.9375H30.7031V37.8438H3.75V33.9375H8.51562V23.1562H3.59375V19.1719H30.8594ZM13.5156 33.9375H20.9375V23.1562H13.5156V33.9375Z" fill="white"/>
<mask id="mask0_1592_2561" style="mask-type:alpha" maskUnits="userSpaceOnUse" x="174" y="-6" width="194" height="80">
<rect x="174" y="-6" width="194" height="80" fill="#D9D9D9"/>
</mask>
<g mask="url(#mask0_1592_2561)">
<path fill-rule="evenodd" clip-rule="evenodd" d="M207.181 36.7477H175.877V32.146H207.64L198.385 22.875L202.059 19.3291L216.92 34.2168L202.059 49.1045L198.385 45.5586L207.181 36.7477Z" fill="white"/>
<path fill-rule="evenodd" clip-rule="evenodd" d="M257.721 36.7477H226.417V32.146H258.18L248.925 22.875L252.599 19.3291L267.46 34.2168L252.599 49.1045L248.925 45.5586L257.721 36.7477Z" fill="white"/>
<path fill-rule="evenodd" clip-rule="evenodd" d="M308.261 36.7477H276.957V32.146H308.72L299.465 22.875L303.139 19.3291L318 34.2168L303.139 49.1045L299.465 45.5586L308.261 36.7477Z" fill="white"/>
</g>
</svg>
