<svg width="202" height="40" viewBox="0 0 202 40" fill="none" xmlns="http://www.w3.org/2000/svg">
<path d="M184.117 2.55469C192.281 2.55469 197.008 4.70312 197.047 8.60938C197.008 12.5547 192.281 14.7031 184.117 14.7031C175.914 14.7031 171.148 12.5547 171.148 8.60938C171.148 4.70312 175.914 2.55469 184.117 2.55469ZM184.117 6.1875C178.883 6.1875 176.344 7.04688 176.383 8.60938C176.344 10.3672 178.883 11.0312 184.117 11.0312C189.391 11.0312 191.891 10.3672 191.891 8.60938C191.891 7.04688 189.391 6.1875 184.117 6.1875ZM200.328 16.3828V20.3281H167.906V16.3828H200.328ZM196.383 22.3984V31.4609H176.578V33.6094H197.32V37.3594H171.695V27.9844H191.461V26.0312H171.656V22.3984H196.383Z" fill="white"/>
<path d="M153.716 4.50781V20.5234H136.333V4.50781H153.716ZM141.255 8.49219V16.5391H148.755V8.49219H141.255ZM164.302 2.08594V22.9844H159.302V2.08594H164.302ZM152.231 23.6094C159.692 23.6094 164.419 26.1875 164.419 30.6016C164.419 35.0156 159.692 37.5938 152.231 37.5938C144.653 37.5938 139.927 35.0156 139.927 30.6016C139.927 26.1875 144.653 23.6094 152.231 23.6094ZM152.231 27.5156C147.427 27.4766 144.966 28.4531 144.966 30.6016C144.966 32.6719 147.427 33.7266 152.231 33.7266C156.919 33.7266 159.458 32.6719 159.458 30.6016C159.458 28.4531 156.919 27.4766 152.231 27.5156Z" fill="white"/>
<path d="M115.658 5.48438V19.1953H106.947V25.5625C110.326 25.5234 113.548 25.3867 117.181 24.8203L117.533 28.8047C112.884 29.5859 109.056 29.7031 104.642 29.7031H102.181V15.2109H110.853V9.50781H102.142V5.48438H115.658ZM131.908 2.04688V37.5938H127.181V19.5078H123.744V35.875H119.173V2.63281H123.744V15.4844H127.181V2.04688H131.908Z" fill="white"/>
<path d="M96.2329 5.32812V9.58594C96.2329 14.4688 96.2329 19.3125 94.9438 26.6562L89.9048 26.2266C91.2329 19.3906 91.2329 14.3125 91.272 9.58594V9.3125H71.1548V5.32812H96.2329ZM100.217 28.8438V32.9453H67.7954V28.8438H100.217Z" fill="white"/>
<path d="M66.9639 29.5469V33.6484H34.4248V29.5469H48.1357V24.1953H38.1748V12.2422H58.292V8.33594H38.1357V4.35156H63.2139V16.1484H43.1748V20.1328H64.0342V24.1953H53.0967V29.5469H66.9639Z" fill="white"/>
<path d="M33.5938 29.3125V33.4531H1.05469V29.3125H33.5938ZM30.8594 5.17188V9.15625H25.8594V19.9375H30.7031V23.8438H3.75V19.9375H8.51562V9.15625H3.59375V5.17188H30.8594ZM13.5156 19.9375H20.9375V9.15625H13.5156V19.9375Z" fill="white"/>
</svg>
