<svg width="331" height="330" viewBox="0 0 331 330" fill="none" xmlns="http://www.w3.org/2000/svg">
<path d="M0.105469 0H330.105V314C330.105 322.837 322.942 330 314.105 330H16.1055C7.26892 330 0.105469 322.837 0.105469 314V0Z" fill="#14E48B"/>
<mask id="mask0_1555_2057" style="mask-type:alpha" maskUnits="userSpaceOnUse" x="0" y="0" width="331" height="330">
<path d="M0.105469 0H330.105V314C330.105 322.837 322.942 330 314.105 330H16.1055C7.26892 330 0.105469 322.837 0.105469 314V0Z" fill="#14E48B"/>
</mask>
<g mask="url(#mask0_1555_2057)">
<path opacity="0.6" d="M53.5158 72.1233L40.8358 68.7257L37.3341 81.7942L31.7845 80.3072L35.2862 67.2387L22.6062 63.8411L23.9108 58.9725L36.5908 62.3701L40.0667 49.3976L45.6163 50.8846L42.1404 63.8571L54.8204 67.2547L53.5158 72.1233Z" fill="#1AD283"/>
<path opacity="0.6" d="M282.066 245.496L270.384 251.484L276.556 263.524L271.443 266.145L265.271 254.105L253.59 260.093L251.29 255.608L262.972 249.62L256.846 237.668L261.959 235.047L268.085 246.999L279.767 241.011L282.066 245.496Z" fill="#1AD283"/>
<path d="M90.4396 266.194L84.0996 264.496L82.3487 271.03L79.5739 270.286L81.3247 263.752L74.9847 262.053L75.637 259.619L81.977 261.318L83.715 254.832L86.4898 255.575L84.7518 262.061L91.0918 263.76L90.4396 266.194Z" fill="#1AD283"/>
<path d="M90.5795 259.998L84.8952 263.28L88.2776 269.138L85.7898 270.575L82.4074 264.716L76.7231 267.998L75.463 265.815L81.1473 262.534L77.7898 256.718L80.2776 255.282L83.6351 261.097L89.3194 257.815L90.5795 259.998Z" fill="#1AD283"/>
<path d="M245.44 61.1945L239.1 59.4957L237.349 66.0299L234.574 65.2864L236.325 58.7522L229.985 57.0534L230.637 54.619L236.977 56.3178L238.715 49.8316L241.49 50.5751L239.752 57.0613L246.092 58.7601L245.44 61.1945Z" fill="#1AD283"/>
<path d="M245.579 54.9979L239.895 58.2798L243.278 64.1382L240.79 65.5746L237.407 59.7161L231.723 62.9979L230.463 60.8154L236.147 57.5336L232.79 51.7182L235.278 50.2818L238.635 56.0972L244.319 52.8154L245.579 54.9979Z" fill="#1AD283"/>
</g>
<path d="M313.105 94C313.105 89.5817 316.687 86 321.105 86H330.105V243H321.105C316.687 243 313.105 239.418 313.105 235V94Z" fill="#1AD283"/>
<path d="M18.1055 94C18.1055 89.5817 14.5237 86 10.1055 86H1.10547V243H10.1055C14.5237 243 18.1055 239.418 18.1055 235V94Z" fill="#1AD283"/>
<g filter="url(#filter0_d_1555_2057)">
<rect x="27.1055" y="86" width="276" height="157" rx="8" fill="white"/>
</g>
<path opacity="0.7" d="M242.714 175.976C242.722 174.937 243.015 174.62 243.529 174.306C243.875 174.082 244.144 173.809 244.14 173.402C244.144 172.945 243.785 172.652 243.341 172.652C242.938 172.652 242.547 172.913 242.518 173.459H241.5C241.529 172.363 242.343 171.805 243.35 171.805C244.449 171.805 245.203 172.416 245.207 173.385C245.203 174.049 244.873 174.481 244.344 174.795C243.871 175.084 243.675 175.365 243.667 175.976V176.05H242.714V175.976ZM242.584 177.215C242.58 176.873 242.869 176.591 243.219 176.587C243.557 176.591 243.847 176.873 243.847 177.215C243.847 177.565 243.557 177.85 243.219 177.85C242.869 177.85 242.58 177.565 242.584 177.215Z" fill="black"/>
<path opacity="0.7" d="M241.136 174.948V175.673H234.422V174.948H241.136ZM235.114 172.87C235.114 171.937 236.161 171.375 237.771 171.379C239.376 171.375 240.423 171.937 240.427 172.87C240.423 173.807 239.376 174.377 237.771 174.377C236.161 174.377 235.114 173.807 235.114 172.87ZM235.253 178.362V176.219H236.157V177.628H240.378V178.362H235.253ZM236.06 172.87C236.051 173.371 236.699 173.64 237.771 173.636C238.846 173.64 239.49 173.371 239.49 172.87C239.49 172.385 238.846 172.104 237.771 172.104C236.699 172.104 236.051 172.385 236.06 172.87Z" fill="black"/>
<path opacity="0.7" d="M233.189 171.141V172.729H234.215V173.487H233.189V175.141H232.284V171.141H233.189ZM227.363 174.489C229.111 174.106 230.028 173.279 230.15 172.281H227.705V171.548H231.16C231.16 173.471 229.914 174.709 227.697 175.223L227.363 174.489ZM228.137 178.4V175.508H228.977V176.274H229.938V175.508H230.761V177.752C231.572 177.378 231.93 176.665 231.934 176.005V175.426H232.798V175.989C232.802 176.701 233.173 177.435 234.028 177.781L233.556 178.465C232.977 178.221 232.594 177.797 232.366 177.284C232.138 177.793 231.751 178.221 231.185 178.465L230.761 177.871V178.4H228.137ZM228.977 177.7H229.938V176.95H228.977V177.7Z" fill="black"/>
<path opacity="0.7" d="M227.05 174.702V175.419H220.336V174.702H223.237V173.683H224.133V174.702H227.05ZM220.703 173.406C222.222 173.215 223.22 172.38 223.22 171.5V171.223H224.141V171.5C224.141 172.396 225.131 173.215 226.667 173.406L226.316 174.115C225.11 173.932 224.145 173.39 223.676 172.616C223.204 173.386 222.238 173.932 221.028 174.115L220.703 173.406ZM220.8 177.773C222.312 177.59 223.208 176.845 223.212 176.005V175.818H224.141V176.005C224.141 176.845 225.041 177.59 226.561 177.773L226.235 178.474C225.037 178.299 224.121 177.802 223.672 177.085C223.228 177.802 222.32 178.299 221.126 178.474L220.8 177.773Z" fill="black"/>
<path opacity="0.7" d="M216.188 175.084V176.278C216.828 176.241 217.472 176.184 218.079 176.094L218.152 176.763C216.502 177.068 214.734 177.084 213.434 177.08L213.32 176.347C213.895 176.343 214.571 176.339 215.284 176.318V175.084H216.188ZM213.491 174.636C214.6 174.33 215.211 173.601 215.264 172.778H213.711V172.045H215.284V171.206H216.188V172.045H217.777V172.778H216.201C216.249 173.565 216.873 174.269 217.981 174.555L217.565 175.263C216.693 175.027 216.07 174.518 215.736 173.866C215.414 174.55 214.799 175.084 213.923 175.32L213.491 174.636ZM218.519 178.514V171.141H219.423V178.514H218.519Z" fill="black"/>
<path opacity="0.7" d="M206.82 171.654C207.989 171.65 208.84 172.387 208.848 173.43C208.84 174.477 207.989 175.21 206.82 175.214C205.663 175.21 204.795 174.477 204.799 173.43C204.795 172.387 205.663 171.65 206.82 171.654ZM204.465 176.233C205.793 176.233 207.63 176.217 209.223 175.989L209.296 176.648C207.647 176.962 205.878 176.974 204.579 176.974L204.465 176.233ZM205.695 173.43C205.691 174.045 206.176 174.424 206.82 174.424C207.471 174.424 207.956 174.045 207.96 173.43C207.956 172.819 207.475 172.436 206.82 172.436C206.176 172.436 205.691 172.819 205.695 173.43ZM209.663 178.514V171.141H210.567V178.514H209.663Z" fill="black"/>
<path opacity="0.7" d="M201.211 173.359L202.107 174.997L203.019 173.359H204.119L202.783 175.567L204.144 177.783H203.052L202.107 176.186L201.186 177.783H200.078L201.431 175.567L200.111 173.359H201.211Z" fill="black"/>
<path opacity="0.7" d="M197.771 177.207L197.087 179.488H196.312L196.736 177.207H197.771Z" fill="black"/>
<path opacity="0.7" d="M194.207 171.279V174.049H194.876V171.141H195.731V178.506H194.876V174.791H194.207V178.156H193.376V171.279H194.207ZM189.449 176.673V172.037H191.03V172.77H190.28V175.907C190.508 175.891 190.765 175.854 191.046 175.785L191.119 176.543C190.553 176.665 190.13 176.673 189.767 176.673H189.449ZM191.331 176.673V172.037H192.953V172.77H192.146V175.915C192.423 175.899 192.721 175.866 193.059 175.777L193.124 176.534C192.549 176.669 192.093 176.673 191.649 176.673H191.331Z" fill="black"/>
<path opacity="0.7" d="M186.239 171.123V172.785H187.273V173.518H186.239V175.14H185.334V171.123H186.239ZM180.438 172.426V171.734H182.173V171.082H183.077V171.734H184.805V172.426H180.438ZM180.812 173.86C180.812 173.127 181.533 172.659 182.621 172.655C183.713 172.659 184.418 173.127 184.422 173.86C184.418 174.614 183.713 175.066 182.621 175.066C181.533 175.066 180.812 174.614 180.812 173.86ZM181.423 176.125V175.465H186.239V177.242H182.328V177.763H186.467V178.439H181.432V176.614H185.334V176.125H181.423ZM181.692 173.86C181.688 174.223 182.051 174.41 182.621 174.414C183.191 174.41 183.558 174.223 183.558 173.86C183.558 173.51 183.191 173.302 182.621 173.306C182.051 173.302 181.688 173.51 181.692 173.86Z" fill="black"/>
<path opacity="0.7" d="M177.587 171.82V172.529C177.579 173.446 177.579 174.468 177.294 176.008L176.381 175.91C176.671 174.476 176.671 173.429 176.675 172.545H172.275V171.82H177.587ZM171.574 177.556V176.815H174.051V174.256H174.947V176.815H178.288V177.556H171.574Z" fill="black"/>
<path opacity="0.7" d="M170.299 171.141V173.935H171.432V174.677H170.299V178.514H169.395V171.141H170.299ZM164.832 176.714V171.841H168.279V172.575H165.736V175.956C166.881 175.952 167.79 175.895 168.8 175.72L168.906 176.486C167.761 176.681 166.771 176.714 165.443 176.714H164.832Z" fill="black"/>
<path opacity="0.7" d="M160.102 175.935C160.102 176.55 160.383 177.19 161.015 177.597C161.658 177.161 161.956 176.493 161.96 175.935V175.634H162.848V175.935C162.844 176.705 163.3 177.43 164.266 177.736L163.826 178.396C163.109 178.155 162.636 177.687 162.38 177.096C162.139 177.679 161.707 178.192 161.039 178.461C160.339 178.204 159.899 177.707 159.666 177.125C159.402 177.691 158.933 178.151 158.253 178.396L157.805 177.736C158.758 177.402 159.218 176.652 159.222 175.935V175.634H160.102V175.935ZM157.617 173.295C157.617 172.26 158.465 171.543 159.605 171.543C160.742 171.543 161.589 172.26 161.585 173.295C161.589 174.318 160.742 175.043 159.605 175.039C158.465 175.043 157.617 174.318 157.617 173.295ZM158.505 173.295C158.501 173.898 158.962 174.285 159.605 174.289C160.237 174.285 160.697 173.898 160.697 173.295C160.697 172.692 160.237 172.305 159.605 172.309C158.962 172.305 158.501 172.692 158.505 173.295ZM162.709 175.324V171.152H163.622V175.324H162.709Z" fill="black"/>
<path opacity="0.7" d="M152.47 171.754C152.466 172.678 153.505 173.62 155.078 173.823L154.719 174.557C153.468 174.369 152.474 173.754 151.994 172.923C151.513 173.754 150.523 174.369 149.285 174.557L148.926 173.823C150.482 173.62 151.517 172.687 151.517 171.754V171.379H152.47V171.754ZM148.633 175.942V175.192H155.347V175.942H152.421V178.508H151.525V175.942H148.633Z" fill="black"/>
<path opacity="0.7" d="M146.491 174.094V174.811H139.77V174.094H146.491ZM140.56 176.001V175.316H145.644V177.166H141.456V177.728H145.848V178.437H140.568V176.514H144.756V176.001H140.56ZM140.625 173.622V171.332H145.628V172.057H141.529V172.905H145.693V173.622H140.625Z" fill="black"/>
<path opacity="0.7" d="M136.468 171.776V175.255H132.98V171.776H136.468ZM133.82 178.359V175.997H134.724V177.626H138.831V178.359H133.82ZM133.869 174.538H135.58V172.501H133.869V174.538ZM137.633 176.518V171.141H138.537V173.3H139.564V174.058H138.537V176.518H137.633Z" fill="black"/>
<path opacity="0.7" d="M130.221 171.141V178.506H129.357V171.141H130.221ZM123.809 176.306C125.332 175.406 126.033 174.253 126.171 172.77H124.183V172.037H127.068C127.068 172.75 126.978 173.418 126.778 174.041H127.801V171.32H128.656V178.156H127.801V174.766H126.481C126.053 175.61 125.361 176.347 124.322 176.95L123.809 176.306Z" fill="black"/>
<path opacity="0.7" d="M122.591 171.141V174.074H123.723V174.823H122.591V178.506H121.694V171.141H122.591ZM116.781 172.998V172.273H118.525V171.247H119.429V172.273H121.124V172.998H116.781ZM117.123 175.214C117.115 174.196 117.906 173.475 118.981 173.479C120.04 173.475 120.827 174.196 120.831 175.214C120.827 176.229 120.04 176.942 118.981 176.942C117.906 176.942 117.115 176.229 117.123 175.214ZM117.987 175.214C117.983 175.813 118.403 176.196 118.981 176.192C119.547 176.196 119.959 175.813 119.967 175.214C119.959 174.616 119.547 174.22 118.981 174.22C118.403 174.22 117.983 174.616 117.987 175.214Z" fill="black"/>
<path opacity="0.7" d="M115.61 171.147V173.29H116.604V174.04H115.61V176.125H114.705V171.147H115.61ZM109.711 175.246C110.265 175.246 110.905 175.241 111.569 175.225V174.773C110.75 174.671 110.228 174.276 110.232 173.697C110.228 173.017 110.941 172.602 112.009 172.606C113.08 172.602 113.785 173.017 113.785 173.697C113.785 174.272 113.28 174.663 112.473 174.769V175.193C113.1 175.16 113.732 175.111 114.323 175.034L114.396 175.661C112.827 175.938 111.104 175.954 109.809 175.954L109.711 175.246ZM109.898 172.394V171.726H111.569V171.082H112.473V171.726H114.127V172.394H109.898ZM110.64 177.152V176.443H115.61V178.505H114.705V177.152H110.64ZM111.104 173.697C111.096 174.003 111.438 174.194 112.009 174.186C112.579 174.194 112.921 174.003 112.921 173.697C112.921 173.376 112.579 173.213 112.009 173.217C111.438 173.213 111.096 173.376 111.104 173.697Z" fill="black"/>
<path opacity="0.7" d="M108.899 171.141V175.516H107.995V173.715H106.74V172.974H107.995V171.141H108.899ZM102.707 174.783C103.893 174.375 104.516 173.385 104.516 172.412V172.355H102.984V171.621H106.96V172.355H105.437V172.404C105.437 173.3 106.031 174.204 107.172 174.587L106.716 175.304C105.897 175.027 105.318 174.465 104.992 173.772C104.671 174.555 104.055 175.19 103.18 175.5L102.707 174.783ZM103.905 177.105C103.897 176.221 104.854 175.703 106.406 175.703C107.966 175.703 108.92 176.221 108.924 177.105C108.92 177.989 107.966 178.502 106.406 178.506C104.854 178.502 103.897 177.989 103.905 177.105ZM104.801 177.105C104.797 177.561 105.384 177.81 106.406 177.805C107.437 177.81 108.019 177.561 108.019 177.105C108.019 176.644 107.437 176.396 106.406 176.396C105.384 176.396 104.797 176.644 104.801 177.105Z" fill="black"/>
<path opacity="0.7" d="M99.7906 173.808V174.525H94.7471V171.551H99.7091V172.276H95.676V173.808H99.7906ZM93.8672 176.073V175.339H100.597V176.073H97.664V178.493H96.7678V176.073H93.8672Z" fill="black"/>
<path opacity="0.7" d="M93.562 176.868V177.61H86.832V176.868H89.7326V175.263H87.5735V171.711H92.788V175.263H90.6289V176.868H93.562ZM88.4616 174.554H91.8918V172.436H88.4616V174.554Z" fill="black"/>
<path opacity="0.7" d="M268.604 161.467V162.192H261.891V161.467H268.604ZM262.583 159.389C262.583 158.457 263.63 157.894 265.239 157.898C266.844 157.894 267.891 158.457 267.895 159.389C267.891 160.326 266.844 160.897 265.239 160.897C263.63 160.897 262.583 160.326 262.583 159.389ZM262.722 164.881V162.738H263.626V164.148H267.847V164.881H262.722ZM263.528 159.389C263.52 159.891 264.168 160.159 265.239 160.155C266.315 160.159 266.958 159.891 266.958 159.389C266.958 158.905 266.315 158.624 265.239 158.624C264.168 158.624 263.52 158.905 263.528 159.389Z" fill="black"/>
<path opacity="0.7" d="M256.585 158.12C257.559 158.116 258.28 158.849 258.28 159.896C258.28 160.947 257.559 161.66 256.585 161.664C255.603 161.66 254.894 160.947 254.898 159.896C254.894 158.849 255.603 158.116 256.585 158.12ZM255.713 159.896C255.705 160.507 256.072 160.907 256.585 160.898C257.09 160.907 257.457 160.507 257.457 159.896C257.457 159.281 257.09 158.89 256.585 158.894C256.072 158.89 255.705 159.281 255.713 159.896ZM256.104 163.139V162.414H261.148V165.029H260.243V163.139H256.104ZM258.72 162.015V157.81H259.559V159.497H260.284V157.672H261.148V162.063H260.284V160.222H259.559V162.015H258.72Z" fill="black"/>
<path opacity="0.7" d="M253.704 158.023V158.594C253.708 159.168 253.708 159.82 253.525 160.688H254.527V161.421H247.797V160.688H252.608C252.783 159.889 252.8 159.286 252.8 158.749H248.628V158.023H253.704ZM248.603 164.941V162.277H253.696V164.941H248.603ZM249.492 164.208H252.8V162.985H249.492V164.208Z" fill="black"/>
<path opacity="0.7" d="M245.075 157.672V162.992H244.163V157.672H245.075ZM239.07 159.994C239.07 158.923 239.938 158.157 241.058 158.153C242.179 158.157 243.042 158.923 243.038 159.994C243.042 161.082 242.179 161.843 241.058 161.843C239.938 161.843 239.07 161.082 239.07 159.994ZM239.958 159.994C239.954 160.646 240.427 161.053 241.058 161.053C241.674 161.053 242.15 160.646 242.15 159.994C242.15 159.358 241.674 158.943 241.058 158.943C240.427 158.943 239.954 159.358 239.958 159.994ZM240.203 164.883V162.455H241.115V164.149H245.279V164.883H240.203Z" fill="black"/>
<path opacity="0.7" d="M235.736 158.273C235.732 159.198 236.771 160.139 238.343 160.343L237.985 161.076C236.734 160.889 235.74 160.273 235.259 159.442C234.779 160.273 233.789 160.889 232.55 161.076L232.192 160.343C233.748 160.139 234.783 159.206 234.783 158.273V157.898H235.736V158.273ZM231.898 162.461V161.712H238.612V162.461H235.687V165.028H234.791V162.461H231.898Z" fill="black"/>
<path opacity="0.7" d="M231.024 157.664V162.039H230.12V160.239H228.865V159.497H230.12V157.664H231.024ZM224.832 161.306C226.018 160.899 226.641 159.909 226.641 158.935V158.878H225.109V158.145H229.085V158.878H227.561V158.927C227.561 159.823 228.156 160.728 229.297 161.111L228.841 161.828C228.022 161.551 227.443 160.988 227.117 160.296C226.796 161.078 226.18 161.713 225.305 162.023L224.832 161.306ZM226.03 163.628C226.022 162.744 226.979 162.227 228.531 162.227C230.091 162.227 231.045 162.744 231.049 163.628C231.045 164.512 230.091 165.026 228.531 165.03C226.979 165.026 226.022 164.512 226.03 163.628ZM226.926 163.628C226.922 164.084 227.509 164.333 228.531 164.329C229.562 164.333 230.144 164.084 230.144 163.628C230.144 163.168 229.562 162.919 228.531 162.919C227.509 162.919 226.922 163.168 226.926 163.628Z" fill="black"/>
<path opacity="0.7" d="M222.126 157.672V162.992H221.213V157.672H222.126ZM216.121 159.994C216.121 158.923 216.989 158.157 218.109 158.153C219.229 158.157 220.093 158.923 220.089 159.994C220.093 161.082 219.229 161.843 218.109 161.843C216.989 161.843 216.121 161.082 216.121 159.994ZM217.009 159.994C217.005 160.646 217.478 161.053 218.109 161.053C218.724 161.053 219.201 160.646 219.201 159.994C219.201 159.358 218.724 158.943 218.109 158.943C217.478 158.943 217.005 159.358 217.009 159.994ZM217.254 164.883V162.455H218.166V164.149H222.33V164.883H217.254Z" fill="black"/>
<path opacity="0.7" d="M211.556 158.837C211.556 159.762 212.155 160.638 213.291 160.996L212.803 161.705C212.008 161.436 211.438 160.899 211.116 160.214C210.798 160.996 210.203 161.612 209.356 161.909L208.867 161.2C210.053 160.789 210.647 159.807 210.652 158.756V158.055H211.556V158.837ZM209.869 163.62C209.869 162.748 210.827 162.231 212.363 162.235C213.886 162.231 214.827 162.748 214.831 163.62C214.827 164.512 213.886 165.021 212.363 165.021C210.827 165.021 209.869 164.512 209.869 163.62ZM210.774 163.62C210.774 164.076 211.352 164.304 212.363 164.304C213.369 164.304 213.935 164.076 213.935 163.62C213.935 163.188 213.369 162.944 212.363 162.944C211.352 162.944 210.774 163.188 210.774 163.62ZM213.854 162.072V157.664H214.758V159.457H215.785V160.206H214.758V162.072H213.854Z" fill="black"/>
<path opacity="0.7" d="M208.035 157.664V165.038H207.123V157.664H208.035ZM202.145 160.801C202.14 159.212 202.951 158.202 204.067 158.202C205.171 158.202 205.986 159.212 205.99 160.801C205.986 162.402 205.171 163.408 204.067 163.408C202.951 163.408 202.14 162.402 202.145 160.801ZM203.016 160.801C203.016 161.933 203.444 162.589 204.067 162.593C204.687 162.589 205.11 161.933 205.11 160.801C205.11 159.677 204.687 159.017 204.067 159.017C203.444 159.017 203.016 159.677 203.016 160.801Z" fill="black"/>
<path opacity="0.7" d="M199.224 157.672V163.245H198.312V162.601H196.869V161.966H198.312V157.672H199.224ZM193.016 160.98C194.372 160.972 196.201 160.959 197.766 160.76L197.815 161.412C197.208 161.514 196.58 161.579 195.957 161.624V163.041H195.053V161.672C194.364 161.701 193.708 161.705 193.13 161.705L193.016 160.98ZM193.578 159.244C193.578 158.466 194.327 157.937 195.419 157.941C196.491 157.937 197.244 158.466 197.252 159.244C197.244 160.035 196.491 160.536 195.419 160.54C194.327 160.536 193.578 160.035 193.578 159.244ZM193.993 164.883V162.707H194.898V164.149H199.395V164.883H193.993ZM194.433 159.244C194.433 159.644 194.828 159.876 195.419 159.88C195.981 159.876 196.385 159.644 196.389 159.244C196.385 158.845 195.981 158.605 195.419 158.609C194.828 158.605 194.433 158.845 194.433 159.244Z" fill="black"/>
<path opacity="0.7" d="M189.828 159.883L190.724 161.52L191.637 159.883H192.737L191.4 162.091L192.761 164.307H191.669L190.724 162.71L189.803 164.307H188.695L190.048 162.091L188.728 159.883H189.828Z" fill="black"/>
<path opacity="0.7" d="M186.593 163.427V164.177H179.863V163.427H182.764V162.229H180.662V159.818H184.899V158.905H180.645V158.172H185.795V160.535H181.566V161.488H185.966V162.229H183.66V163.427H186.593Z" fill="black"/>
<path opacity="0.7" d="M176.169 158.082C177.721 158.082 178.919 158.909 178.915 160.16C178.919 161.427 177.721 162.254 176.169 162.254C174.625 162.254 173.435 161.427 173.44 160.16C173.435 158.909 174.625 158.082 176.169 158.082ZM172.82 164.103V163.362H179.55V164.103H172.82ZM174.311 160.16C174.307 160.995 175.098 161.508 176.169 161.512C177.245 161.508 178.027 160.995 178.027 160.16C178.027 159.345 177.245 158.807 176.169 158.815C175.098 158.807 174.307 159.345 174.311 160.16Z" fill="black"/>
<path opacity="0.7" d="M171.946 157.672V163.049H171.041V160.352H169.738V159.619H171.041V157.672H171.946ZM165.762 161.461C166.935 161.074 167.562 160.112 167.562 159.13V158.935H166.031V158.201H170.007V158.935H168.483V159.138C168.483 160.022 169.078 160.939 170.219 161.314L169.762 162.039C168.939 161.758 168.357 161.196 168.035 160.499C167.713 161.273 167.098 161.892 166.226 162.194L165.762 161.461ZM167.114 164.883V162.577H168.019V164.149H172.133V164.883H167.114Z" fill="black"/>
<path opacity="0.7" d="M165.456 161.194V161.919H158.734V161.194H161.651V160.493H159.557V158H164.641V158.709H160.462V159.776H164.682V160.493H162.539V161.194H165.456ZM159.517 163.687C159.517 162.823 160.482 162.339 162.083 162.343C163.672 162.339 164.629 162.823 164.633 163.687C164.629 164.543 163.672 165.027 162.083 165.031C160.482 165.027 159.517 164.543 159.517 163.687ZM160.437 163.687C160.433 164.115 161.012 164.335 162.083 164.331C163.138 164.335 163.721 164.115 163.729 163.687C163.721 163.263 163.138 163.035 162.083 163.035C161.012 163.035 160.433 163.263 160.437 163.687Z" fill="black"/>
<path opacity="0.7" d="M152.265 158.177C153.434 158.173 154.285 158.911 154.294 159.954C154.285 161.001 153.434 161.734 152.265 161.738C151.108 161.734 150.24 161.001 150.244 159.954C150.24 158.911 151.108 158.173 152.265 158.177ZM149.91 162.756C151.238 162.756 153.076 162.74 154.668 162.512L154.742 163.172C153.092 163.486 151.324 163.498 150.024 163.498L149.91 162.756ZM151.14 159.954C151.136 160.569 151.621 160.948 152.265 160.948C152.917 160.948 153.401 160.569 153.406 159.954C153.401 159.342 152.921 158.96 152.265 158.96C151.621 158.96 151.136 159.342 151.14 159.954ZM155.108 165.038V157.664H156.013V165.038H155.108Z" fill="black"/>
<path opacity="0.7" d="M149.55 162.017V162.725H147.929V165.031H147.016V162.725H145.362V165.031H144.458V162.725H142.82V162.017H149.55ZM143.611 158.652V157.91H148.768V159.972H144.539V160.672H148.931V161.406H143.627V159.295H147.839V158.652H143.611Z" fill="black"/>
<path opacity="0.7" d="M139.582 160.294V161.231H142.499V161.964H135.785V161.231H138.686V160.294H139.582ZM136.103 159.984C137.464 159.85 138.348 159.316 138.498 158.713H136.396V157.988H141.896V158.713H139.773C139.924 159.312 140.808 159.85 142.181 159.984L141.855 160.693C140.519 160.555 139.533 160.033 139.134 159.292C138.735 160.033 137.757 160.555 136.421 160.693L136.103 159.984ZM136.567 163.724C136.567 162.897 137.525 162.437 139.134 162.437C140.731 162.437 141.68 162.897 141.684 163.724C141.68 164.559 140.731 165.02 139.134 165.02C137.525 165.02 136.567 164.559 136.567 163.724ZM137.488 163.724C137.484 164.128 138.05 164.335 139.134 164.335C140.197 164.335 140.772 164.128 140.78 163.724C140.772 163.333 140.197 163.134 139.134 163.129C138.05 163.134 137.484 163.333 137.488 163.724Z" fill="black"/>
<path opacity="0.7" d="M129.705 159.758C129.705 160.964 130.414 162.235 131.604 162.732L131.107 163.449C130.235 163.07 129.6 162.3 129.261 161.363C128.923 162.373 128.276 163.221 127.416 163.628L126.895 162.919C128.056 162.382 128.781 161.009 128.785 159.758V159.139H127.163V158.389H131.319V159.139H129.705V159.758ZM132.142 165.03V157.664H133.054V165.03H132.142Z" fill="black"/>
<path opacity="0.7" d="M125.653 157.664V160.54H126.745V161.298H125.653V165.013H124.749V157.664H125.653ZM119.844 163.001C121.636 162.105 122.606 160.858 122.785 159.18H120.243V158.43H123.706C123.702 160.593 122.805 162.496 120.357 163.702L119.844 163.001Z" fill="black"/>
<path opacity="0.7" d="M113.322 159.595C113.326 160.785 113.734 162.023 114.732 162.65L114.235 163.343C113.571 162.944 113.139 162.259 112.894 161.457C112.63 162.341 112.157 163.09 111.465 163.514L110.902 162.838C111.974 162.19 112.446 160.891 112.45 159.636V158.316H113.322V159.595ZM113.941 160.948V160.198H114.992V157.794H115.848V164.671H114.992V160.948H113.941ZM116.508 165.03V157.664H117.38V165.03H116.508Z" fill="black"/>
<path opacity="0.7" d="M108.341 157.672V163.245H107.429V162.601H105.987V161.966H107.429V157.672H108.341ZM102.133 160.98C103.489 160.972 105.319 160.959 106.883 160.76L106.932 161.412C106.325 161.514 105.697 161.579 105.074 161.624V163.041H104.17V161.672C103.481 161.701 102.825 161.705 102.247 161.705L102.133 160.98ZM102.695 159.244C102.695 158.466 103.445 157.937 104.536 157.941C105.608 157.937 106.361 158.466 106.37 159.244C106.361 160.035 105.608 160.536 104.536 160.54C103.445 160.536 102.695 160.035 102.695 159.244ZM103.111 164.883V162.707H104.015V164.149H108.512V164.883H103.111ZM103.551 159.244C103.551 159.644 103.946 159.876 104.536 159.88C105.099 159.876 105.502 159.644 105.506 159.244C105.502 158.845 105.099 158.605 104.536 158.609C103.946 158.605 103.551 158.845 103.551 159.244Z" fill="black"/>
<path opacity="0.7" d="M101.145 158.406V164.305H100.078V159.441H100.045L98.668 160.321V159.351L100.126 158.406H101.145Z" fill="black"/>
<path opacity="0.7" d="M97.4808 158.406V164.305H96.4135V159.441H96.3809L95.0039 160.321V159.351L96.4623 158.406H97.4808Z" fill="black"/>
<path opacity="0.7" d="M92.5014 163.727L91.817 166.008H91.043L91.4666 163.727H92.5014Z" fill="black"/>
<path opacity="0.7" d="M90.2007 157.672V163.245H89.2882V162.601H87.846V161.966H89.2882V157.672H90.2007ZM83.9922 160.98C85.3488 160.972 87.1779 160.959 88.7423 160.76L88.7912 161.412C88.1842 161.514 87.5568 161.579 86.9335 161.624V163.041H86.0291V161.672C85.3406 161.701 84.6847 161.705 84.1063 161.705L83.9922 160.98ZM84.5544 159.244C84.5544 158.466 85.304 157.937 86.3958 157.941C87.4672 157.937 88.2208 158.466 88.229 159.244C88.2208 160.035 87.4672 160.536 86.3958 160.54C85.304 160.536 84.5544 160.035 84.5544 159.244ZM84.9699 164.883V162.707H85.8743V164.149H90.3718V164.883H84.9699ZM85.4099 159.244C85.4099 159.644 85.805 159.876 86.3958 159.88C86.9579 159.876 87.3613 159.644 87.3653 159.244C87.3613 158.845 86.9579 158.605 86.3958 158.609C85.805 158.605 85.4099 158.845 85.4099 159.244Z" fill="black"/>
<path opacity="0.7" d="M81.2497 158.324C82.4026 158.332 83.5514 159.021 83.5555 161.176C83.5555 163.209 82.6348 164.386 81.1845 164.386C80.0479 164.386 79.2616 163.677 79.1313 162.7H80.1823C80.2882 163.168 80.6508 163.465 81.1845 163.465C82.04 163.465 82.5207 162.712 82.5288 161.445H82.4637C82.1663 161.958 81.5959 162.264 80.9482 162.26C79.8931 162.264 79.0783 161.461 79.0742 160.345C79.0742 159.192 79.9419 158.316 81.2497 158.324ZM80.109 160.32C80.109 160.956 80.5815 161.453 81.2415 161.453C81.8974 161.453 82.4026 160.923 82.3985 160.312C82.3985 159.713 81.9178 159.184 81.2578 159.18C80.5938 159.184 80.1008 159.689 80.109 160.32Z" fill="black"/>
<path opacity="0.7" d="M76.5678 163.727L75.8834 166.008H75.1094L75.5331 163.727H76.5678Z" fill="black"/>
<path opacity="0.7" d="M74.2671 157.672V163.245H73.3546V162.601H71.9125V161.966H73.3546V157.672H74.2671ZM68.0586 160.98C69.4152 160.972 71.2443 160.959 72.8087 160.76L72.8576 161.412C72.2506 161.514 71.6232 161.579 70.9999 161.624V163.041H70.0955V161.672C69.407 161.701 68.7511 161.705 68.1727 161.705L68.0586 160.98ZM68.6208 159.244C68.6208 158.466 69.3704 157.937 70.4622 157.941C71.5336 157.937 72.2872 158.466 72.2954 159.244C72.2872 160.035 71.5336 160.536 70.4622 160.54C69.3704 160.536 68.6208 160.035 68.6208 159.244ZM69.0363 164.883V162.707H69.9407V164.149H74.4382V164.883H69.0363ZM69.4763 159.244C69.4763 159.644 69.8715 159.876 70.4622 159.88C71.0244 159.876 71.4277 159.644 71.4317 159.244C71.4277 158.845 71.0244 158.605 70.4622 158.609C69.8715 158.605 69.4763 158.845 69.4763 159.244Z" fill="black"/>
<path opacity="0.7" d="M63.9894 164.305L66.5478 159.335V159.294H63.582V158.406H67.6477V159.311L65.0894 164.305H63.9894Z" fill="black"/>
<path d="M172.642 111.113C171.42 111.113 170.552 110.457 170.516 109.491H171.428C171.461 110.009 171.974 110.339 172.634 110.339C173.347 110.339 173.864 109.952 173.864 109.377C173.864 108.795 173.38 108.379 172.536 108.375H172.031V107.642H172.536C173.208 107.646 173.677 107.271 173.677 106.705C173.677 106.167 173.274 105.8 172.65 105.8C172.06 105.8 171.53 106.13 171.51 106.664H170.646C170.67 105.703 171.559 105.051 172.658 105.051C173.82 105.051 174.549 105.784 174.541 106.656C174.549 107.328 174.133 107.809 173.498 107.968V108.008C174.304 108.122 174.773 108.664 174.769 109.41C174.773 110.392 173.864 111.113 172.642 111.113Z" fill="#8B8F94"/>
<path d="M169.05 105.133V111.032H168.145V106.029H168.113L166.703 106.95V106.094L168.17 105.133H169.05Z" fill="#8B8F94"/>
<path d="M161.848 111.031V110.379L163.893 108.318C164.541 107.646 164.862 107.271 164.862 106.754C164.862 106.171 164.39 105.8 163.771 105.8C163.115 105.8 162.699 106.216 162.695 106.843H161.848C161.84 105.764 162.662 105.051 163.787 105.051C164.923 105.051 165.71 105.772 165.718 106.729C165.71 107.389 165.4 107.915 164.292 109.002L163.094 110.216V110.265H165.816V111.031H161.848Z" fill="#8B8F94"/>
<path d="M158.996 111.032L159.257 109.451H157.88L157.619 111.032H156.919L157.179 109.451H156.332L156.438 108.759H157.293L157.513 107.406H156.674L156.78 106.705H157.632L157.888 105.133H158.589L158.332 106.705H159.709L159.966 105.133H160.658L160.402 106.705H161.261L161.147 107.406H160.288L160.068 108.759H160.919L160.797 109.451H159.954L159.697 111.032H158.996ZM157.994 108.759H159.371L159.591 107.406H158.214L157.994 108.759Z" fill="#8B8F94"/>
<path d="M212.571 120.641V129.027H210.779V125.003H209.049V123.549H210.779V120.641H212.571ZM202.73 126.345C204.692 125.749 205.432 124.257 205.438 122.834V122.809H203.232V121.368H209.475V122.809H207.281V122.847C207.281 124.145 207.996 125.561 209.864 126.157L208.986 127.586C207.726 127.185 206.88 126.395 206.385 125.404C205.877 126.501 204.993 127.373 203.658 127.799L202.73 126.345ZM204.862 131.948V128.3H206.667V130.507H212.835V131.948H204.862Z" fill="black"/>
<path d="M202.479 125.98V127.397H191.961V125.98H196.336V125.115H193.215V121.129H201.238V122.533H195.02V123.699H201.288V125.115H198.116V125.98H202.479ZM193.139 130.03C193.139 128.651 194.663 127.886 197.189 127.886C199.69 127.886 201.2 128.651 201.2 130.03C201.2 131.377 199.69 132.155 197.189 132.161C194.663 132.155 193.139 131.377 193.139 130.03ZM194.982 130.03C194.97 130.563 195.678 130.788 197.189 130.782C198.662 130.788 199.389 130.563 199.395 130.03C199.389 129.503 198.662 129.252 197.189 129.252C195.678 129.252 194.97 129.503 194.982 130.03Z" fill="black"/>
<path d="M182.161 121.377C183.991 121.371 185.37 122.568 185.382 124.235C185.37 125.909 183.991 127.1 182.161 127.094C180.349 127.1 178.939 125.909 178.939 124.235C178.939 122.568 180.349 121.371 182.161 121.377ZM178.5 128.41C180.525 128.416 183.339 128.385 185.771 128.047L185.909 129.35C183.389 129.839 180.694 129.864 178.701 129.864L178.5 128.41ZM180.731 124.235C180.731 125.094 181.358 125.546 182.161 125.539C182.982 125.546 183.615 125.094 183.627 124.235C183.615 123.396 182.988 122.932 182.161 122.932C181.352 122.932 180.731 123.396 180.731 124.235ZM186.385 132.158V120.625H188.178V132.158H186.385Z" fill="black"/>
<path d="M178.08 127.343V128.747H175.761V132.132H173.931V128.747H171.737V132.132H169.919V128.747H167.562V127.343H178.08ZM168.766 122.391V120.949H176.89V124.409H170.621V125.187H177.165V126.628H168.791V123.105H175.034V122.391H168.766Z" fill="black"/>
<path d="M162.833 124.762V126.066H167.196V127.495H156.703V126.066H161.028V124.762H162.833ZM157.117 124.035C159.217 123.847 160.245 123.189 160.571 122.518H157.656V121.102H166.243V122.518H163.31C163.636 123.183 164.657 123.847 166.782 124.035L166.156 125.439C163.912 125.239 162.526 124.449 161.931 123.383C161.335 124.449 159.975 125.239 157.744 125.439L157.117 124.035ZM157.882 130.078C157.882 128.768 159.398 128.034 161.931 128.034C164.444 128.034 165.942 128.768 165.942 130.078C165.942 131.406 164.444 132.146 161.931 132.134C159.398 132.146 157.882 131.406 157.882 130.078ZM159.724 130.078C159.712 130.585 160.401 130.805 161.931 130.805C163.416 130.805 164.131 130.585 164.137 130.078C164.131 129.601 163.416 129.401 161.931 129.401C160.401 129.401 159.712 129.601 159.724 130.078Z" fill="black"/>
<path d="M147.754 123.634C147.754 125.464 148.563 127.457 150.562 128.272L149.597 129.689C148.256 129.131 147.372 128.053 146.864 126.736C146.356 128.184 145.454 129.375 144.106 129.977L143.078 128.561C145.071 127.683 145.911 125.571 145.911 123.634V123.182H143.555V121.716H150.061V123.182H147.754V123.634ZM151.039 132.133V120.625H152.856V132.133H151.039Z" fill="black"/>
<path d="M141.447 120.625V124.95H142.989V126.429H141.447V132.096H139.642V120.625H141.447ZM132.133 128.799C134.772 127.47 136.188 125.759 136.502 123.258H132.822V121.778H138.338C138.338 125.282 137.053 128.26 133.148 130.178L132.133 128.799Z" fill="black"/>
<path d="M122.578 123.396C122.578 125.276 122.973 127.182 124.571 128.222L123.593 129.614C122.647 129.043 122.058 128.134 121.7 127.05C121.306 128.26 120.654 129.275 119.657 129.877L118.566 128.535C120.303 127.451 120.823 125.426 120.823 123.483V121.578H122.578V123.396ZM123.368 125.89V124.424H124.709V120.775H126.389V131.619H124.709V125.89H123.368ZM127.079 132.133V120.625H128.809V132.133H127.079Z" fill="black"/>
<rect x="27.1055" y="143.77" width="276" height="0.64186" fill="#EAEAEA"/>
<g clip-path="url(#clip0_1555_2057)">
<path d="M102.566 216.076L104.841 219.247L103.627 219.085L101.355 215.91L102.566 216.076Z" fill="#D84905"/>
<path d="M128.652 197.16C129.408 198.219 130.168 199.277 130.924 200.335C132.44 202.452 133.258 205.047 133.254 207.824L130.982 204.649C130.982 201.869 130.168 199.273 128.652 197.16Z" fill="url(#paint0_linear_1555_2057)"/>
<path d="M130.98 204.649L133.251 207.823L132.096 208.682L129.824 205.511L130.98 204.649Z" fill="#F67205"/>
<path d="M119.463 220.149L121.734 223.323L121.24 224.123L118.969 220.949L119.463 220.149Z" fill="#D84905"/>
<path d="M118.968 220.949L121.24 224.124C117.936 225.385 114.356 225.68 111.03 224.732C108.478 224.002 106.396 222.631 104.865 220.835L102.594 217.66C104.124 219.456 106.207 220.828 108.758 221.558C112.084 222.505 115.664 222.21 118.968 220.949Z" fill="url(#paint1_linear_1555_2057)"/>
<path d="M120.29 220.385L122.565 223.559L121.732 223.323L119.461 220.149L120.29 220.385Z" fill="#F69D05"/>
<path d="M130.932 205.824L133.204 208.999C133.062 210.721 132.607 212.491 131.815 214.25C129.936 218.424 126.516 221.694 122.565 223.56L120.293 220.385C124.248 218.52 127.664 215.253 129.543 211.075C130.336 209.316 130.79 207.546 130.932 205.824Z" fill="url(#paint2_linear_1555_2057)"/>
<path style="mix-blend-mode:overlay" opacity="0.7" d="M131.07 206.004C130.925 207.725 130.474 209.495 129.682 211.254C127.802 215.428 124.382 218.699 120.431 220.564L119.599 220.328L119.104 221.129C115.801 222.39 112.22 222.685 108.895 221.737C106.343 221.007 104.257 219.635 102.73 217.84L102.701 216.254L101.487 216.092C99.3897 212.486 99.1244 207.762 101.211 203.131C101.832 201.752 102.625 200.469 103.544 199.304C104.224 199.005 104.933 198.577 104.973 198.555L105.18 197.493C109.029 193.736 114.368 191.664 119.439 192.169L120.533 193.069L123.612 193.227C128.369 195.259 131.125 199.735 131.117 204.835L129.961 205.694L131.07 206.011V206.004Z" fill="url(#paint3_linear_1555_2057)"/>
<path d="M130.933 205.824C130.788 207.546 130.337 209.315 129.545 211.074C127.666 215.248 124.245 218.519 120.294 220.384L119.462 220.148L118.968 220.949C115.664 222.21 112.084 222.505 108.758 221.557C106.206 220.827 104.12 219.455 102.593 217.66L102.564 216.074L101.35 215.912C99.253 212.306 98.9877 207.582 101.074 202.951C101.696 201.572 102.488 200.289 103.407 199.124C104.087 198.825 104.796 198.398 104.836 198.375L105.043 197.314C108.896 193.553 114.232 191.48 119.302 191.985L120.396 192.885L123.475 193.044C128.233 195.075 130.988 199.552 130.981 204.651L129.825 205.51L130.933 205.827V205.824Z" fill="url(#paint4_linear_1555_2057)"/>
<path style="mix-blend-mode:overlay" opacity="0.7" d="M119.781 196.362C125.502 197.995 128.006 204.061 125.374 209.908C122.743 215.756 115.964 219.171 110.243 217.537C104.522 215.904 102.014 209.838 104.649 203.99C107.284 198.143 114.06 194.728 119.784 196.362H119.781Z" fill="url(#paint5_linear_1555_2057)"/>
<path d="M120.081 196.424C125.802 198.058 128.307 204.123 125.675 209.971C123.044 215.819 116.265 219.233 110.544 217.6C104.823 215.966 102.315 209.897 104.95 204.053C107.585 198.205 114.36 194.791 120.085 196.424H120.081Z" fill="url(#paint6_linear_1555_2057)"/>
<path d="M111.449 217.78C105.728 216.147 103.22 210.081 105.855 204.233C108.294 198.82 114.287 195.491 119.703 196.324C114.062 194.941 107.523 198.334 104.946 204.052C102.311 209.9 104.819 215.966 110.54 217.599C110.962 217.721 111.39 217.809 111.823 217.876C111.696 217.846 111.572 217.813 111.445 217.78H111.449Z" fill="#BA3E05"/>
<path d="M121.857 204.487C121.556 204.406 120.931 204.237 119.76 204.72C120.84 204.026 121.116 203.392 121.25 203.079C121.748 201.925 121.236 200.745 120.109 200.439C119.364 200.236 118.535 200.468 117.917 200.984C117.823 200.276 117.347 199.69 116.602 199.487C115.475 199.181 114.159 199.863 113.665 201.021C113.53 201.331 113.258 201.969 113.578 203.042C113.025 202.091 112.404 201.921 112.098 201.836C110.971 201.53 109.659 202.216 109.161 203.37C108.834 204.133 108.943 204.911 109.383 205.439C108.627 205.638 107.944 206.198 107.613 206.961C107.115 208.115 107.624 209.299 108.751 209.605C109.052 209.686 109.677 209.856 110.848 209.373C109.768 210.066 109.492 210.7 109.358 211.014C108.86 212.168 109.372 213.351 110.499 213.657C111.244 213.86 112.073 213.628 112.694 213.112C112.785 213.82 113.261 214.41 114.006 214.612C115.133 214.918 116.449 214.233 116.947 213.078C117.081 212.769 117.354 212.131 117.034 211.058C117.587 212.009 118.208 212.179 118.513 212.264C119.64 212.57 120.956 211.884 121.454 210.73C121.781 209.966 121.668 209.188 121.229 208.665C121.985 208.462 122.672 207.902 123.002 207.138C123.5 205.984 122.988 204.801 121.861 204.495L121.857 204.487Z" fill="url(#paint7_linear_1555_2057)"/>
<path style="mix-blend-mode:overlay" opacity="0.5" d="M125.964 217.559C123.645 219.874 121.486 221.463 121.144 221.109C120.799 220.755 122.402 218.591 124.721 216.276C127.039 213.96 129.198 212.371 129.54 212.725C129.885 213.079 128.282 215.243 125.964 217.559Z" fill="url(#paint8_radial_1555_2057)"/>
<path style="mix-blend-mode:overlay" opacity="0.4" d="M127.636 195.942L102.578 216.985L102.589 217.659C104.119 219.455 106.202 220.827 108.754 221.557C109.328 221.719 109.909 221.844 110.495 221.937L129.995 205.562L129.82 205.51L130.976 204.651C130.976 201.31 129.791 198.239 127.636 195.945V195.942Z" fill="url(#paint9_linear_1555_2057)"/>
<path style="mix-blend-mode:overlay" opacity="0.4" d="M120.396 192.884L119.302 191.984C117.815 191.836 116.303 191.914 114.813 192.187L100.605 204.119C99.776 206.386 99.4997 208.65 99.7142 210.774L120.981 192.913L120.396 192.884Z" fill="url(#paint10_linear_1555_2057)"/>
<path d="M200.53 216.072L202.802 219.243L201.591 219.081L199.316 215.906L200.53 216.072Z" fill="#D8AA05"/>
<path d="M226.613 197.156C227.373 198.214 228.129 199.273 228.885 200.331C230.401 202.447 231.218 205.043 231.215 207.82L228.943 204.645C228.943 201.865 228.129 199.269 226.613 197.156Z" fill="url(#paint11_linear_1555_2057)"/>
<path d="M228.941 204.645L231.216 207.819L230.06 208.678L227.785 205.507L228.941 204.645Z" fill="#8B7F17"/>
<path d="M217.424 220.148L219.699 223.323L219.205 224.123L216.93 220.948L217.424 220.148Z" fill="#D8AA05"/>
<path d="M216.929 220.949L219.201 224.124C215.897 225.385 212.317 225.68 208.991 224.732C206.439 224.002 204.353 222.631 202.826 220.835L200.555 217.66C202.085 219.456 204.168 220.827 206.719 221.558C210.045 222.505 213.625 222.21 216.929 220.949Z" fill="url(#paint12_linear_1555_2057)"/>
<path d="M218.254 220.384L220.526 223.559L219.697 223.323L217.422 220.148L218.254 220.384Z" fill="#F6DE05"/>
<path d="M228.892 205.82L231.164 208.995C231.022 210.717 230.568 212.487 229.776 214.246C227.897 218.42 224.476 221.69 220.522 223.556L218.25 220.381C222.205 218.515 225.621 215.249 227.5 211.071C228.293 209.312 228.743 207.542 228.889 205.82H228.892Z" fill="url(#paint13_linear_1555_2057)"/>
<path style="mix-blend-mode:overlay" opacity="0.7" d="M229.031 206.003C228.886 207.725 228.435 209.495 227.642 211.254C225.763 215.428 222.343 218.698 218.392 220.564L217.56 220.328L217.065 221.128C213.761 222.389 210.181 222.684 206.855 221.737C204.304 221.007 202.218 219.635 200.691 217.839L200.662 216.254L199.448 216.092C197.351 212.485 197.085 207.762 199.172 203.131C199.793 201.752 200.586 200.469 201.505 199.304C202.185 199.005 202.897 198.577 202.934 198.555L203.141 197.493C206.99 193.736 212.329 191.664 217.396 192.169L218.49 193.069L221.569 193.227C226.33 195.259 229.082 199.735 229.075 204.834L227.919 205.694L229.027 206.011L229.031 206.003Z" fill="url(#paint14_linear_1555_2057)"/>
<path d="M228.895 205.824C228.749 207.546 228.299 209.315 227.506 211.074C225.627 215.248 222.207 218.519 218.256 220.384L217.424 220.149L216.929 220.949C213.625 222.21 210.045 222.505 206.719 221.557C204.168 220.827 202.085 219.455 200.555 217.66L200.526 216.074L199.312 215.912C197.214 212.306 196.949 207.582 199.032 202.951C199.653 201.572 200.446 200.289 201.365 199.124C202.045 198.825 202.757 198.398 202.794 198.375L203.001 197.314C206.85 193.556 212.19 191.484 217.26 191.989L218.354 192.889L221.433 193.047C226.191 195.079 228.946 199.555 228.938 204.655L227.783 205.514L228.891 205.831L228.895 205.824Z" fill="url(#paint15_linear_1555_2057)"/>
<path style="mix-blend-mode:overlay" opacity="0.7" d="M217.745 196.361C223.467 197.995 225.974 204.06 223.339 209.908C220.704 215.756 213.929 219.171 208.208 217.537C202.487 215.904 199.979 209.838 202.614 203.99C205.249 198.142 212.024 194.728 217.745 196.361Z" fill="url(#paint16_linear_1555_2057)"/>
<path d="M218.038 196.424C223.759 198.057 226.267 204.123 223.632 209.971C220.997 215.819 214.222 219.233 208.501 217.6C202.78 215.966 200.272 209.897 202.907 204.053C205.542 198.205 212.317 194.79 218.038 196.424Z" fill="url(#paint17_linear_1555_2057)"/>
<path d="M209.41 217.78C203.689 216.146 201.181 210.081 203.816 204.233C206.255 198.82 212.248 195.49 217.664 196.324C212.023 194.941 205.484 198.333 202.907 204.052C200.272 209.9 202.78 215.966 208.501 217.599C208.923 217.721 209.351 217.809 209.784 217.876C209.657 217.846 209.533 217.813 209.406 217.78H209.41Z" fill="#BA9205"/>
<path d="M219.994 206.405L217.373 204.543L216.621 201.361C216.53 200.988 216.305 200.752 216.014 200.675C215.723 200.594 215.363 200.675 215.007 200.922L211.958 203.068L208.454 203.263C207.636 203.311 207.105 203.957 207.276 204.701L208.014 207.887L206.604 211.191C206.335 211.818 206.553 212.334 207.083 212.478C207.203 212.511 207.338 212.526 207.491 212.515L210.994 212.338L213.626 214.181C213.739 214.262 213.859 214.318 213.979 214.347C214.513 214.491 215.08 214.192 215.352 213.565L216.781 210.265L219.82 208.105C220.528 207.599 220.608 206.833 219.998 206.397L219.994 206.405Z" fill="url(#paint18_linear_1555_2057)"/>
<path style="mix-blend-mode:overlay" opacity="0.5" d="M223.924 217.558C221.606 219.874 219.447 221.463 219.105 221.109C218.76 220.755 220.363 218.591 222.682 216.275C225 213.96 227.159 212.371 227.501 212.725C227.846 213.079 226.243 215.243 223.924 217.558Z" fill="url(#paint19_radial_1555_2057)"/>
<path style="mix-blend-mode:overlay" opacity="0.4" d="M225.601 195.941L200.543 216.984L200.554 217.659C202.084 219.455 204.167 220.826 206.718 221.557C207.293 221.719 207.874 221.844 208.459 221.936L227.96 205.561L227.785 205.51L228.941 204.651C228.941 201.31 227.756 198.239 225.601 195.945V195.941Z" fill="url(#paint20_linear_1555_2057)"/>
<path style="mix-blend-mode:overlay" opacity="0.4" d="M218.357 192.883L217.263 191.984C215.776 191.836 214.264 191.914 212.774 192.187L198.566 204.118C197.737 206.386 197.461 208.65 197.675 210.774L218.942 192.913L218.357 192.883Z" fill="url(#paint21_linear_1555_2057)"/>
<path d="M151.347 216.076L153.622 219.247L152.408 219.085L150.137 215.91L151.347 216.076Z" fill="#676767"/>
<path d="M177.434 197.16C178.19 198.218 178.949 199.277 179.705 200.335C181.221 202.451 182.039 205.047 182.035 207.824L179.763 204.649C179.763 201.869 178.949 199.273 177.434 197.16Z" fill="url(#paint22_linear_1555_2057)"/>
<path d="M179.761 204.649L182.033 207.823L180.881 208.682L178.605 205.511L179.761 204.649Z" fill="#635F5C"/>
<path d="M168.244 220.149L170.516 223.323L170.025 224.123L167.75 220.949L168.244 220.149Z" fill="#676767"/>
<path d="M167.749 220.949L170.021 224.124C166.717 225.385 163.137 225.68 159.811 224.732C157.26 224.002 155.177 222.631 153.647 220.835L151.375 217.66C152.905 219.456 154.988 220.828 157.539 221.558C160.865 222.505 164.445 222.21 167.749 220.949Z" fill="url(#paint23_linear_1555_2057)"/>
<path d="M169.071 220.384L171.346 223.559L170.514 223.323L168.242 220.149L169.071 220.384Z" fill="#9C9C9C"/>
<path d="M179.713 205.824L181.985 208.999C181.843 210.721 181.389 212.491 180.596 214.25C178.717 218.424 175.297 221.694 171.346 223.56L169.074 220.385C173.029 218.519 176.445 215.253 178.325 211.075C179.117 209.316 179.571 207.546 179.713 205.824Z" fill="url(#paint24_linear_1555_2057)"/>
<path style="mix-blend-mode:overlay" opacity="0.7" d="M179.851 206.003C179.706 207.725 179.255 209.495 178.463 211.254C176.583 215.428 173.163 218.698 169.208 220.564L168.376 220.328L167.882 221.128C164.578 222.389 160.998 222.684 157.672 221.737C155.12 221.007 153.034 219.635 151.507 217.839L151.478 216.254L150.264 216.091C148.167 212.485 147.902 207.762 149.988 203.131C150.61 201.752 151.402 200.469 152.322 199.304C153.001 199.005 153.71 198.577 153.75 198.555L153.957 197.493C157.814 193.732 163.149 191.66 168.22 192.165L169.314 193.065L172.393 193.223C177.15 195.255 179.902 199.731 179.898 204.831L178.742 205.69L179.851 206.007V206.003Z" fill="url(#paint25_linear_1555_2057)"/>
<path d="M179.715 205.824C179.569 207.545 179.118 209.315 178.326 211.074C176.447 215.248 173.027 218.519 169.076 220.384L168.243 220.148L167.749 220.949C164.445 222.21 160.865 222.505 157.539 221.557C154.987 220.827 152.905 219.455 151.375 217.66L151.345 216.074L150.131 215.912C148.034 212.306 147.769 207.582 149.855 202.951C150.477 201.572 151.269 200.289 152.189 199.124C152.868 198.825 153.581 198.397 153.617 198.375L153.824 197.313C157.677 193.552 163.013 191.48 168.083 191.985L169.177 192.885L172.256 193.044C177.018 195.075 179.769 199.552 179.762 204.651L178.606 205.51L179.715 205.827V205.824Z" fill="url(#paint26_linear_1555_2057)"/>
<path style="mix-blend-mode:overlay" opacity="0.7" d="M168.562 196.361C174.283 197.995 176.791 204.06 174.156 209.908C171.521 215.756 164.745 219.171 159.024 217.537C153.303 215.904 150.795 209.838 153.43 203.99C156.066 198.142 162.841 194.728 168.562 196.361Z" fill="url(#paint27_linear_1555_2057)"/>
<path d="M168.863 196.424C174.584 198.057 177.092 204.123 174.456 209.971C171.821 215.819 165.046 219.233 159.325 217.6C153.604 215.966 151.096 209.897 153.731 204.053C156.366 198.205 163.142 194.791 168.863 196.424Z" fill="url(#paint28_linear_1555_2057)"/>
<path d="M160.23 217.78C154.509 216.146 152.001 210.081 154.636 204.233C157.075 198.82 163.069 195.491 168.484 196.324C162.843 194.941 156.304 198.333 153.727 204.052C151.092 209.9 153.6 215.966 159.321 217.599C159.743 217.721 160.172 217.809 160.604 217.876C160.477 217.846 160.353 217.813 160.226 217.78H160.23Z" fill="#737373"/>
<path d="M170.275 201.814C168.829 201.401 167.204 201.832 165.979 202.824C165.823 201.441 164.914 200.283 163.467 199.87C161.283 199.247 158.691 200.553 157.688 202.783C157.266 203.724 156.143 206.213 159.807 211.146L161.316 213.178L164.103 212.37C170.868 210.416 171.991 207.923 172.412 206.987C173.419 204.756 172.46 202.437 170.275 201.814Z" fill="url(#paint29_linear_1555_2057)"/>
<path style="mix-blend-mode:overlay" opacity="0.5" d="M174.745 217.559C172.426 219.874 170.267 221.463 169.926 221.109C169.58 220.755 171.183 218.591 173.502 216.276C175.821 213.96 177.979 212.371 178.321 212.725C178.666 213.079 177.063 215.243 174.745 217.559Z" fill="url(#paint30_radial_1555_2057)"/>
<path style="mix-blend-mode:overlay" opacity="0.4" d="M176.421 195.941L151.363 216.984L151.374 217.659C152.904 219.455 154.987 220.827 157.539 221.557C158.113 221.719 158.695 221.844 159.28 221.936L178.78 205.561L178.606 205.51L179.761 204.651C179.761 201.31 178.576 198.239 176.421 195.945V195.941Z" fill="url(#paint31_linear_1555_2057)"/>
<path style="mix-blend-mode:overlay" opacity="0.4" d="M169.176 192.884L168.082 191.984C166.596 191.836 165.084 191.914 163.593 192.187L149.382 204.122C148.557 206.39 148.277 208.657 148.491 210.778L169.762 192.913L169.176 192.884Z" fill="url(#paint32_linear_1555_2057)"/>
</g>
<defs>
<filter id="filter0_d_1555_2057" x="7.10547" y="67" width="316" height="197" filterUnits="userSpaceOnUse" color-interpolation-filters="sRGB">
<feFlood flood-opacity="0" result="BackgroundImageFix"/>
<feColorMatrix in="SourceAlpha" type="matrix" values="0 0 0 0 0 0 0 0 0 0 0 0 0 0 0 0 0 0 127 0" result="hardAlpha"/>
<feOffset dy="1"/>
<feGaussianBlur stdDeviation="10"/>
<feComposite in2="hardAlpha" operator="out"/>
<feColorMatrix type="matrix" values="0 0 0 0 0 0 0 0 0 0 0 0 0 0 0 0 0 0 0.16 0"/>
<feBlend mode="normal" in2="BackgroundImageFix" result="effect1_dropShadow_1555_2057"/>
<feBlend mode="normal" in="SourceGraphic" in2="effect1_dropShadow_1555_2057" result="shape"/>
</filter>
<linearGradient id="paint0_linear_1555_2057" x1="106.481" y1="224.033" x2="132.391" y2="201.868" gradientUnits="userSpaceOnUse">
<stop stop-color="#D13F05"/>
<stop offset="0.29" stop-color="#F67205"/>
<stop offset="0.37" stop-color="#F67605"/>
<stop offset="0.45" stop-color="#F68405"/>
<stop offset="0.54" stop-color="#F69B05"/>
<stop offset="0.56" stop-color="#F6A205"/>
<stop offset="0.6" stop-color="#F69005"/>
<stop offset="0.64" stop-color="#F67F05"/>
<stop offset="0.69" stop-color="#F67505"/>
<stop offset="0.76" stop-color="#F67205"/>
<stop offset="1" stop-color="#D13F05"/>
</linearGradient>
<linearGradient id="paint1_linear_1555_2057" x1="107.286" y1="224.968" x2="133.193" y2="202.807" gradientUnits="userSpaceOnUse">
<stop stop-color="#D13F05"/>
<stop offset="0.29" stop-color="#F67205"/>
<stop offset="0.37" stop-color="#F67605"/>
<stop offset="0.45" stop-color="#F68405"/>
<stop offset="0.54" stop-color="#F69B05"/>
<stop offset="0.56" stop-color="#F6A205"/>
<stop offset="0.6" stop-color="#F69005"/>
<stop offset="0.64" stop-color="#F67F05"/>
<stop offset="0.69" stop-color="#F67505"/>
<stop offset="0.76" stop-color="#F67205"/>
<stop offset="1" stop-color="#D13F05"/>
</linearGradient>
<linearGradient id="paint2_linear_1555_2057" x1="110.875" y1="229.168" x2="136.786" y2="207.007" gradientUnits="userSpaceOnUse">
<stop stop-color="#D13F05"/>
<stop offset="0.29" stop-color="#F67205"/>
<stop offset="0.37" stop-color="#F67605"/>
<stop offset="0.45" stop-color="#F68405"/>
<stop offset="0.54" stop-color="#F69B05"/>
<stop offset="0.56" stop-color="#F6A205"/>
<stop offset="0.6" stop-color="#F69005"/>
<stop offset="0.64" stop-color="#F67F05"/>
<stop offset="0.69" stop-color="#F67505"/>
<stop offset="0.76" stop-color="#F67205"/>
<stop offset="1" stop-color="#D13F05"/>
</linearGradient>
<linearGradient id="paint3_linear_1555_2057" x1="101.407" y1="218.776" x2="130" y2="195.848" gradientUnits="userSpaceOnUse">
<stop stop-color="white" stop-opacity="0"/>
<stop offset="0.26" stop-color="white"/>
<stop offset="0.76" stop-color="white"/>
<stop offset="1" stop-color="white" stop-opacity="0"/>
</linearGradient>
<linearGradient id="paint4_linear_1555_2057" x1="126.244" y1="211.701" x2="97.4468" y2="199.708" gradientUnits="userSpaceOnUse">
<stop stop-color="#FFAF02"/>
<stop offset="1" stop-color="#F56D05"/>
</linearGradient>
<linearGradient id="paint5_linear_1555_2057" x1="104.809" y1="197.055" x2="121.677" y2="212.948" gradientUnits="userSpaceOnUse">
<stop stop-color="white" stop-opacity="0"/>
<stop offset="0.26" stop-color="white"/>
<stop offset="0.76" stop-color="white"/>
<stop offset="1" stop-color="white" stop-opacity="0"/>
</linearGradient>
<linearGradient id="paint6_linear_1555_2057" x1="103.9" y1="207.014" x2="126.722" y2="207.014" gradientUnits="userSpaceOnUse">
<stop stop-color="#CF4505"/>
<stop offset="1" stop-color="#E45905"/>
</linearGradient>
<linearGradient id="paint7_linear_1555_2057" x1="121.865" y1="209.86" x2="108.694" y2="204.376" gradientUnits="userSpaceOnUse">
<stop stop-color="#FFAF02"/>
<stop offset="1" stop-color="#F56D05"/>
</linearGradient>
<radialGradient id="paint8_radial_1555_2057" cx="0" cy="0" r="1" gradientUnits="userSpaceOnUse" gradientTransform="translate(130.292 221.764) rotate(45.8807) scale(0.859623 5.92939)">
<stop stop-color="white"/>
<stop offset="0.09" stop-color="white" stop-opacity="0.96"/>
<stop offset="0.24" stop-color="white" stop-opacity="0.85"/>
<stop offset="0.43" stop-color="white" stop-opacity="0.66"/>
<stop offset="0.66" stop-color="white" stop-opacity="0.41"/>
<stop offset="0.93" stop-color="white" stop-opacity="0.09"/>
<stop offset="1" stop-color="white" stop-opacity="0"/>
</radialGradient>
<linearGradient id="paint9_linear_1555_2057" x1="111.556" y1="202.549" x2="122.017" y2="214.646" gradientUnits="userSpaceOnUse">
<stop stop-color="white"/>
<stop offset="1" stop-color="white" stop-opacity="0"/>
</linearGradient>
<linearGradient id="paint10_linear_1555_2057" x1="105.555" y1="196.917" x2="111.142" y2="202.501" gradientUnits="userSpaceOnUse">
<stop stop-color="white"/>
<stop offset="1" stop-color="white" stop-opacity="0"/>
</linearGradient>
<linearGradient id="paint11_linear_1555_2057" x1="204.445" y1="224.025" x2="230.355" y2="201.864" gradientUnits="userSpaceOnUse">
<stop stop-color="#FFBA33"/>
<stop offset="0.29" stop-color="#F6CF05"/>
<stop offset="0.37" stop-color="#F6C105"/>
<stop offset="0.45" stop-color="#F6C105"/>
<stop offset="0.54" stop-color="#F69B05"/>
<stop offset="0.56" stop-color="#F6CF05"/>
<stop offset="0.6" stop-color="#F6C105"/>
<stop offset="0.64" stop-color="#FFB320"/>
<stop offset="0.69" stop-color="#FFD914"/>
<stop offset="0.76" stop-color="#FFC52F"/>
<stop offset="1" stop-color="#D1A405"/>
</linearGradient>
<linearGradient id="paint12_linear_1555_2057" x1="205.247" y1="224.968" x2="231.157" y2="202.807" gradientUnits="userSpaceOnUse">
<stop stop-color="#B18411"/>
<stop offset="0.0001" stop-color="#E2CC05"/>
<stop offset="0.265725" stop-color="#F6C105"/>
<stop offset="0.37" stop-color="#F6DE05"/>
<stop offset="0.421875" stop-color="#F6C105"/>
<stop offset="0.54" stop-color="#F69B05"/>
<stop offset="0.5401" stop-color="#F6C105"/>
<stop offset="0.6" stop-color="#F6C105"/>
<stop offset="0.64" stop-color="#F6C105"/>
<stop offset="0.69" stop-color="#F6B305"/>
<stop offset="0.76" stop-color="#F6CF05"/>
<stop offset="1" stop-color="#D1B005"/>
</linearGradient>
<linearGradient id="paint13_linear_1555_2057" x1="208.84" y1="229.168" x2="234.746" y2="207.003" gradientUnits="userSpaceOnUse">
<stop stop-color="#FFB11A"/>
<stop offset="0.29" stop-color="#F6CF05"/>
<stop offset="0.37" stop-color="#F6B305"/>
<stop offset="0.45" stop-color="#F6C105"/>
<stop offset="0.54" stop-color="#F6DE05"/>
<stop offset="0.56" stop-color="#F6DE05"/>
<stop offset="0.6" stop-color="#F6C105"/>
<stop offset="0.64" stop-color="#F6DE05"/>
<stop offset="0.69" stop-color="#F6EC05"/>
<stop offset="0.76" stop-color="#F6EC05"/>
<stop offset="1" stop-color="#FFBD13"/>
</linearGradient>
<linearGradient id="paint14_linear_1555_2057" x1="199.368" y1="218.776" x2="227.964" y2="195.848" gradientUnits="userSpaceOnUse">
<stop stop-color="white" stop-opacity="0"/>
<stop offset="0.26" stop-color="white"/>
<stop offset="0.76" stop-color="white"/>
<stop offset="1" stop-color="white" stop-opacity="0"/>
</linearGradient>
<linearGradient id="paint15_linear_1555_2057" x1="224.21" y1="211.701" x2="195.408" y2="199.708" gradientUnits="userSpaceOnUse">
<stop stop-color="#FAFF00"/>
<stop offset="1" stop-color="#FFB015"/>
</linearGradient>
<linearGradient id="paint16_linear_1555_2057" x1="202.77" y1="197.055" x2="219.641" y2="212.948" gradientUnits="userSpaceOnUse">
<stop stop-color="white" stop-opacity="0"/>
<stop offset="0.26" stop-color="white"/>
<stop offset="0.76" stop-color="white"/>
<stop offset="1" stop-color="white" stop-opacity="0"/>
</linearGradient>
<linearGradient id="paint17_linear_1555_2057" x1="201.86" y1="191.911" x2="224.679" y2="191.911" gradientUnits="userSpaceOnUse">
<stop stop-color="#ECB423"/>
<stop offset="1" stop-color="#FFD911"/>
</linearGradient>
<linearGradient id="paint18_linear_1555_2057" x1="219.325" y1="209.915" x2="207.002" y2="204.78" gradientUnits="userSpaceOnUse">
<stop stop-color="#F1FF55"/>
<stop offset="1" stop-color="#FFCB14"/>
</linearGradient>
<radialGradient id="paint19_radial_1555_2057" cx="0" cy="0" r="1" gradientUnits="userSpaceOnUse" gradientTransform="translate(227.208 220.731) rotate(45.8807) scale(0.859256 5.92686)">
<stop stop-color="white"/>
<stop offset="0.09" stop-color="white" stop-opacity="0.96"/>
<stop offset="0.24" stop-color="white" stop-opacity="0.85"/>
<stop offset="0.43" stop-color="white" stop-opacity="0.66"/>
<stop offset="0.66" stop-color="white" stop-opacity="0.41"/>
<stop offset="0.93" stop-color="white" stop-opacity="0.09"/>
<stop offset="1" stop-color="white" stop-opacity="0"/>
</radialGradient>
<linearGradient id="paint20_linear_1555_2057" x1="209.521" y1="202.549" x2="219.978" y2="214.646" gradientUnits="userSpaceOnUse">
<stop stop-color="white"/>
<stop offset="1" stop-color="white" stop-opacity="0"/>
</linearGradient>
<linearGradient id="paint21_linear_1555_2057" x1="203.52" y1="196.917" x2="209.103" y2="202.501" gradientUnits="userSpaceOnUse">
<stop stop-color="white"/>
<stop offset="1" stop-color="white" stop-opacity="0"/>
</linearGradient>
<linearGradient id="paint22_linear_1555_2057" x1="155.262" y1="224.033" x2="181.176" y2="201.868" gradientUnits="userSpaceOnUse">
<stop stop-color="#9E9E9E"/>
<stop offset="0.29" stop-color="#B8B8B8"/>
<stop offset="0.37" stop-color="#D7D7D7"/>
<stop offset="0.45" stop-color="#C3C3C3"/>
<stop offset="0.54" stop-color="#F69B05"/>
<stop offset="0.56" stop-color="#C9C9C9"/>
<stop offset="0.6" stop-color="#BDBDBC"/>
<stop offset="0.64" stop-color="#CDCDCD"/>
<stop offset="0.69" stop-color="#D2D2D2"/>
<stop offset="0.76" stop-color="#D7D7D7"/>
<stop offset="1" stop-color="#BDBDBD"/>
</linearGradient>
<linearGradient id="paint23_linear_1555_2057" x1="156.067" y1="224.968" x2="181.978" y2="202.807" gradientUnits="userSpaceOnUse">
<stop stop-color="#CCCCCC"/>
<stop offset="0.29" stop-color="#A8A8A8"/>
<stop offset="0.37" stop-color="#676767"/>
<stop offset="0.45" stop-color="#585858"/>
<stop offset="0.54" stop-color="#49330E"/>
<stop offset="0.56" stop-color="#4E4E4E"/>
<stop offset="0.6" stop-color="#6A6A6A"/>
<stop offset="0.64" stop-color="#5C5C5C"/>
<stop offset="0.69" stop-color="#555555"/>
<stop offset="0.76" stop-color="#4D4D4D"/>
<stop offset="1" stop-color="#676767"/>
</linearGradient>
<linearGradient id="paint24_linear_1555_2057" x1="159.657" y1="229.168" x2="185.567" y2="207.007" gradientUnits="userSpaceOnUse">
<stop stop-color="#575757"/>
<stop offset="0.29" stop-color="#BBBBBB"/>
<stop offset="0.37" stop-color="#C6C6C6"/>
<stop offset="0.45" stop-color="#D3D3D3"/>
<stop offset="0.515625" stop-color="#C5C5C5"/>
<stop offset="0.54" stop-color="#DEDEDE"/>
<stop offset="0.5999" stop-color="#D9D9D9"/>
<stop offset="0.6" stop-color="#D7D7D7"/>
<stop offset="0.64" stop-color="#D3D3D3"/>
<stop offset="0.69" stop-color="#AFAFAF"/>
<stop offset="0.76" stop-color="#9F9F9F"/>
<stop offset="1" stop-color="#636262"/>
</linearGradient>
<linearGradient id="paint25_linear_1555_2057" x1="150.188" y1="218.776" x2="178.781" y2="195.848" gradientUnits="userSpaceOnUse">
<stop stop-color="white" stop-opacity="0"/>
<stop offset="0.26" stop-color="white"/>
<stop offset="0.76" stop-color="white"/>
<stop offset="1" stop-color="white" stop-opacity="0"/>
</linearGradient>
<linearGradient id="paint26_linear_1555_2057" x1="175.026" y1="211.701" x2="146.228" y2="199.708" gradientUnits="userSpaceOnUse">
<stop stop-color="#E9E9E9"/>
<stop offset="1" stop-color="#8C8C8C"/>
</linearGradient>
<linearGradient id="paint27_linear_1555_2057" x1="153.59" y1="197.055" x2="170.462" y2="212.948" gradientUnits="userSpaceOnUse">
<stop stop-color="#7A7A7A" stop-opacity="0"/>
<stop offset="0.26" stop-color="white"/>
<stop offset="0.76" stop-color="white"/>
<stop offset="1" stop-color="white" stop-opacity="0"/>
</linearGradient>
<linearGradient id="paint28_linear_1555_2057" x1="152.681" y1="191.911" x2="175.503" y2="191.911" gradientUnits="userSpaceOnUse">
<stop stop-color="#B9B9B9"/>
<stop offset="1" stop-color="#8E8E8E"/>
</linearGradient>
<linearGradient id="paint29_linear_1555_2057" x1="171.235" y1="209.811" x2="157.188" y2="203.964" gradientUnits="userSpaceOnUse">
<stop stop-color="#AAAAAA"/>
<stop offset="1" stop-color="#E9E9E9"/>
</linearGradient>
<radialGradient id="paint30_radial_1555_2057" cx="0" cy="0" r="1" gradientUnits="userSpaceOnUse" gradientTransform="translate(180.123 222.794) rotate(45.8807) scale(0.859257 5.92687)">
<stop stop-color="#7A7A7A"/>
<stop offset="0.09" stop-color="white" stop-opacity="0.96"/>
<stop offset="0.24" stop-color="white" stop-opacity="0.85"/>
<stop offset="0.43" stop-color="white" stop-opacity="0.66"/>
<stop offset="0.66" stop-color="white" stop-opacity="0.41"/>
<stop offset="0.93" stop-color="white" stop-opacity="0.09"/>
<stop offset="1" stop-color="white" stop-opacity="0"/>
</radialGradient>
<linearGradient id="paint31_linear_1555_2057" x1="160.337" y1="202.549" x2="170.799" y2="214.646" gradientUnits="userSpaceOnUse">
<stop stop-color="white"/>
<stop offset="1" stop-color="white" stop-opacity="0"/>
</linearGradient>
<linearGradient id="paint32_linear_1555_2057" x1="154.339" y1="196.917" x2="159.922" y2="202.501" gradientUnits="userSpaceOnUse">
<stop stop-color="white"/>
<stop offset="1" stop-color="white" stop-opacity="0"/>
</linearGradient>
<clipPath id="clip0_1555_2057">
<rect width="131.581" height="33.3767" fill="white" transform="translate(99.6367 191.91)"/>
</clipPath>
</defs>
</svg>
