<svg width="700" height="330" viewBox="0 0 700 330" fill="none" xmlns="http://www.w3.org/2000/svg">
<path d="M0 0H684C692.837 0 700 7.16344 700 16V314C700 322.837 692.837 330 684 330H0V0Z" fill="#14E48B"/>
<g filter="url(#filter0_d_1555_1887)">
<rect x="110" y="43" width="480" height="245" rx="12" fill="white"/>
</g>
<path opacity="0.7" d="M192.464 165L196.45 157.256V157.192H191.829V155.809H198.164V157.218L194.178 165H192.464ZM208.479 154.666V163.35H207.058V162.347H204.81V161.356H207.058V154.666H208.479ZM208.746 164.759V165.901H200.329V162.512H201.738V164.759H208.746ZM198.806 159.82C200.926 159.808 203.769 159.782 206.207 159.478L206.283 160.493C205.337 160.652 204.36 160.76 203.389 160.823V163.032H201.979V160.899C200.907 160.944 199.885 160.95 198.983 160.95L198.806 159.82ZM202.551 155.085C204.227 155.085 205.394 155.91 205.407 157.116C205.394 158.348 204.227 159.135 202.551 159.135C200.85 159.135 199.682 158.348 199.682 157.116C199.682 155.91 200.85 155.085 202.551 155.085ZM202.551 156.126C201.637 156.126 201.015 156.494 201.015 157.116C201.015 157.738 201.637 158.106 202.551 158.106C203.427 158.106 204.049 157.738 204.061 157.116C204.049 156.494 203.427 156.126 202.551 156.126ZM212.066 164.099L211 167.653H209.794L210.454 164.099H212.066ZM219.354 155.682C221.156 155.694 222.934 156.761 222.947 160.125C222.947 163.299 221.512 165.127 219.252 165.127C217.475 165.127 216.256 164.022 216.053 162.499H217.691C217.856 163.223 218.414 163.692 219.252 163.692C220.585 163.692 221.334 162.512 221.347 160.544H221.245C220.776 161.344 219.9 161.813 218.884 161.813C217.246 161.813 215.977 160.569 215.964 158.83C215.964 157.027 217.31 155.669 219.354 155.682ZM219.366 157.015C218.338 157.015 217.564 157.814 217.576 158.792C217.576 159.782 218.313 160.557 219.341 160.557C220.357 160.557 221.156 159.731 221.144 158.779C221.144 157.84 220.395 157.015 219.366 157.015ZM233.3 154.666V163.35H231.878V162.347H229.631V161.356H231.878V154.666H233.3ZM233.566 164.759V165.901H225.149V162.512H226.559V164.759H233.566ZM223.626 159.82C225.746 159.808 228.59 159.782 231.027 159.478L231.104 160.493C230.158 160.652 229.18 160.76 228.209 160.823V163.032H226.8V160.899C225.727 160.944 224.705 160.95 223.804 160.95L223.626 159.82ZM227.371 155.085C229.047 155.085 230.215 155.91 230.228 157.116C230.215 158.348 229.047 159.135 227.371 159.135C225.67 159.135 224.502 158.348 224.502 157.116C224.502 155.91 225.67 155.085 227.371 155.085ZM227.371 156.126C226.457 156.126 225.835 156.494 225.835 157.116C225.835 157.738 226.457 158.106 227.371 158.106C228.247 158.106 228.869 157.738 228.882 157.116C228.869 156.494 228.247 156.126 227.371 156.126ZM236.886 164.099L235.82 167.653H234.614L235.274 164.099H236.886ZM244.644 155.809V165H242.981V157.421H242.93L240.784 158.792V157.281L243.057 155.809H244.644ZM250.351 155.809V165H248.688V157.421H248.637L246.491 158.792V157.281L248.764 155.809H250.351ZM261.567 154.666V163.35H260.145V162.347H257.898V161.356H260.145V154.666H261.567ZM261.834 164.759V165.901H253.417V162.512H254.826V164.759H261.834ZM251.893 159.82C254.013 159.808 256.857 159.782 259.295 159.478L259.371 160.493C258.425 160.652 257.448 160.76 256.476 160.823V163.032H255.067V160.899C253.994 160.944 252.972 160.95 252.071 160.95L251.893 159.82ZM255.638 155.085C257.314 155.085 258.482 155.91 258.495 157.116C258.482 158.348 257.314 159.135 255.638 159.135C253.937 159.135 252.769 158.348 252.769 157.116C252.769 155.91 253.937 155.085 255.638 155.085ZM255.638 156.126C254.724 156.126 254.102 156.494 254.102 157.116C254.102 157.738 254.724 158.106 255.638 158.106C256.514 158.106 257.137 157.738 257.149 157.116C257.137 156.494 256.514 156.126 255.638 156.126ZM269.325 157.662C269.325 159.516 269.972 161.445 271.521 162.423L270.746 163.502C269.712 162.88 269.039 161.807 268.664 160.544C268.245 161.934 267.509 163.108 266.43 163.769L265.554 162.715C267.217 161.699 267.966 159.681 267.966 157.726V155.669H269.325V157.662ZM275.647 154.653V166.13H274.288V154.653H275.647ZM273.26 154.856V165.571H271.927V159.77H270.289V158.602H271.927V154.856H273.26ZM288.533 154.653V159.135H290.234V160.315H288.533V166.104H287.124V154.653H288.533ZM285.499 155.847C285.499 159.224 284.102 162.182 280.281 164.061L279.481 162.969C282.274 161.579 283.785 159.624 284.077 157.015H280.103V155.847H285.499ZM294.849 157.916C294.849 159.795 295.954 161.775 297.807 162.55L297.033 163.667C295.674 163.083 294.684 161.877 294.164 160.417C293.63 161.991 292.628 163.312 291.282 163.946L290.469 162.842C292.285 162.004 293.415 159.871 293.415 157.916V156.951H290.888V155.783H297.363V156.951H294.849V157.916ZM300.067 154.653V166.13H298.645V154.653H300.067ZM310.236 158.754V160.214H314.781V161.356H304.32V160.214H308.84V158.754H310.236ZM309.538 162.093C312.026 162.093 313.499 162.804 313.512 164.099C313.499 165.394 312.026 166.117 309.538 166.117C307.037 166.117 305.539 165.394 305.539 164.099C305.539 162.804 307.037 162.093 309.538 162.093ZM309.538 163.172C307.85 163.172 306.961 163.489 306.974 164.099C306.961 164.733 307.85 165.051 309.538 165.051C311.189 165.051 312.09 164.733 312.103 164.099C312.09 163.489 311.189 163.172 309.538 163.172ZM313.842 155.161V156.291H310.541C310.77 157.224 312.147 158.062 314.286 158.271L313.778 159.376C311.696 159.167 310.16 158.354 309.538 157.192C308.916 158.354 307.393 159.167 305.311 159.376L304.816 158.271C306.936 158.062 308.313 157.23 308.548 156.291H305.273V155.161H313.842ZM325.769 161.433V162.537H323.243V166.13H321.821V162.537H319.244V166.13H317.835V162.537H315.283V161.433H325.769ZM324.551 155.034V158.246H317.962V159.338H324.805V160.48H316.54V157.192H323.103V156.189H316.515V155.034H324.551ZM329.991 155.453C331.806 155.44 333.139 156.596 333.152 158.221C333.139 159.858 331.806 161.001 329.991 161.001C328.188 161.001 326.842 159.858 326.842 158.221C326.842 156.596 328.188 155.44 329.991 155.453ZM329.991 156.672C328.988 156.672 328.239 157.269 328.239 158.221C328.239 159.186 328.988 159.77 329.991 159.77C331.006 159.77 331.768 159.186 331.768 158.221C331.768 157.269 331.006 156.672 329.991 156.672ZM335.831 154.653V166.143H334.422V154.653H335.831ZM326.322 162.588C328.391 162.588 331.26 162.562 333.736 162.207L333.85 163.235C331.273 163.73 328.518 163.743 326.5 163.743L326.322 162.588ZM350.545 160.15V161.28H340.071V160.15H344.616V159.059H341.354V155.174H349.276V156.278H342.763V157.941H349.339V159.059H346V160.15H350.545ZM345.289 161.94C347.765 161.94 349.25 162.689 349.263 164.035C349.25 165.368 347.765 166.13 345.289 166.13C342.788 166.13 341.29 165.368 341.29 164.035C341.29 162.689 342.788 161.94 345.289 161.94ZM345.289 163.02C343.613 163.02 342.712 163.375 342.725 164.035C342.712 164.695 343.613 165.038 345.289 165.038C346.927 165.038 347.841 164.695 347.854 164.035C347.841 163.375 346.927 163.02 345.289 163.02ZM360.657 154.666V163.045H359.248V158.843H357.217V157.7H359.248V154.666H360.657ZM360.949 164.759V165.901H353.129V162.309H354.538V164.759H360.949ZM355.262 156.951C355.262 158.335 356.188 159.757 357.966 160.341L357.255 161.471C355.973 161.033 355.065 160.163 354.563 159.071C354.056 160.284 353.097 161.242 351.745 161.712L351.021 160.569C352.85 159.973 353.827 158.462 353.827 156.938V156.634H351.44V155.491H357.636V156.634H355.262V156.951ZM367.24 155.301C369.665 155.301 371.518 156.583 371.518 158.538C371.518 160.519 369.665 161.801 367.24 161.801C364.828 161.801 362.974 160.519 362.987 158.538C362.974 156.583 364.828 155.301 367.24 155.301ZM367.24 156.443C365.577 156.431 364.345 157.269 364.345 158.538C364.345 159.833 365.577 160.646 367.24 160.646C368.916 160.646 370.134 159.833 370.134 158.538C370.134 157.269 368.916 156.431 367.24 156.443ZM372.508 163.527V164.683H362.022V163.527H372.508ZM383.484 163.629V164.797H372.997V163.629H377.517V161.763H374.242V158.005H380.843V156.583H374.216V155.44H382.24V159.122H375.651V160.607H382.506V161.763H378.913V163.629H383.484ZM388.512 158.106L389.908 160.658L391.33 158.106H393.044L390.962 161.547L393.082 165H391.381L389.908 162.512L388.474 165H386.747L388.854 161.547L386.798 158.106H388.512ZM403.156 154.666V163.35H401.734V162.347H399.487V161.356H401.734V154.666H403.156ZM403.423 164.759V165.901H395.006V162.512H396.415V164.759H403.423ZM393.482 159.82C395.602 159.808 398.446 159.782 400.883 159.478L400.96 160.493C400.014 160.652 399.036 160.76 398.065 160.823V163.032H396.656V160.899C395.583 160.944 394.561 160.95 393.66 160.95L393.482 159.82ZM397.227 155.085C398.903 155.085 400.071 155.91 400.084 157.116C400.071 158.348 398.903 159.135 397.227 159.135C395.526 159.135 394.358 158.348 394.358 157.116C394.358 155.91 395.526 155.085 397.227 155.085ZM397.227 156.126C396.313 156.126 395.691 156.494 395.691 157.116C395.691 157.738 396.313 158.106 397.227 158.106C398.103 158.106 398.725 157.738 398.738 157.116C398.725 156.494 398.103 156.126 397.227 156.126ZM416.88 154.653V166.143H415.458V154.653H416.88ZM410.697 155.491C412.424 155.491 413.681 157.065 413.694 159.541C413.681 162.042 412.424 163.604 410.697 163.604C408.958 163.604 407.701 162.042 407.701 159.541C407.701 157.065 408.958 155.491 410.697 155.491ZM410.697 156.761C409.72 156.761 409.06 157.789 409.06 159.541C409.06 161.306 409.72 162.334 410.697 162.334C411.662 162.334 412.322 161.306 412.322 159.541C412.322 157.789 411.662 156.761 410.697 156.761ZM422.371 156.481C422.371 157.929 423.311 159.287 425.075 159.846L424.313 160.95C423.076 160.531 422.187 159.693 421.698 158.627C421.19 159.846 420.264 160.804 418.943 161.268L418.182 160.163C420.035 159.516 420.949 157.992 420.962 156.354V155.263H422.371V156.481ZM427.36 154.653V157.446H428.96V158.614H427.36V161.521H425.951V154.653H427.36ZM423.628 161.775C426.002 161.763 427.462 162.575 427.475 163.934C427.462 165.317 426.002 166.117 423.628 166.117C421.229 166.117 419.743 165.317 419.743 163.934C419.743 162.575 421.229 161.763 423.628 161.775ZM423.628 162.88C422.054 162.88 421.152 163.261 421.152 163.934C421.152 164.645 422.054 165 423.628 165C425.202 165 426.078 164.645 426.078 163.934C426.078 163.261 425.202 162.88 423.628 162.88ZM438.844 154.666V162.956H437.422V154.666H438.844ZM439.161 164.759V165.901H431.252V162.118H432.674V164.759H439.161ZM432.585 155.415C434.324 155.415 435.67 156.621 435.67 158.284C435.67 159.985 434.324 161.166 432.585 161.166C430.833 161.166 429.487 159.985 429.487 158.284C429.487 156.621 430.833 155.415 432.585 155.415ZM432.585 156.646C431.607 156.646 430.858 157.294 430.871 158.284C430.858 159.3 431.607 159.935 432.585 159.935C433.537 159.935 434.286 159.3 434.286 158.284C434.286 157.294 433.537 156.646 432.585 156.646ZM452.695 154.653V161.471H451.285V158.665H449.33V157.51H451.285V154.653H452.695ZM448.81 161.763C451.247 161.763 452.733 162.562 452.733 163.946C452.733 165.33 451.247 166.13 448.81 166.13C446.385 166.13 444.9 165.33 444.912 163.946C444.9 162.562 446.385 161.763 448.81 161.763ZM448.81 162.842C447.21 162.842 446.309 163.223 446.309 163.946C446.309 164.657 447.21 165.038 448.81 165.038C450.409 165.038 451.324 164.657 451.324 163.946C451.324 163.223 450.409 162.842 448.81 162.842ZM447.299 156.621C447.299 158.018 448.226 159.427 450.003 160.023L449.292 161.141C448.016 160.709 447.109 159.833 446.614 158.754C446.106 159.979 445.147 160.957 443.782 161.445L443.046 160.328C444.887 159.693 445.865 158.145 445.865 156.634V156.545H443.478V155.402H449.673V156.545H447.299V156.621ZM460.039 155.605C460.039 157.053 461.651 158.513 464.102 158.83L463.543 159.973C461.594 159.681 460.045 158.722 459.303 157.421C458.547 158.722 457.005 159.681 455.075 159.973L454.517 158.83C456.941 158.513 458.554 157.053 458.554 155.605V155.021H460.039V155.605ZM464.521 160.963V162.131H459.963V166.13H458.566V162.131H454.06V160.963H464.521ZM474.595 154.666V162.956H473.173V154.666H474.595ZM474.912 164.759V165.901H467.003V162.118H468.425V164.759H474.912ZM468.336 155.415C470.075 155.415 471.421 156.621 471.421 158.284C471.421 159.985 470.075 161.166 468.336 161.166C466.584 161.166 465.238 159.985 465.238 158.284C465.238 156.621 466.584 155.415 468.336 155.415ZM468.336 156.646C467.358 156.646 466.609 157.294 466.622 158.284C466.609 159.3 467.358 159.935 468.336 159.935C469.288 159.935 470.037 159.3 470.037 158.284C470.037 157.294 469.288 156.646 468.336 156.646ZM488.039 155.212V156.101C488.039 156.989 488.039 158.005 487.76 159.363H489.322V160.506H478.835V159.363H486.338C486.605 158.125 486.63 157.18 486.63 156.342H480.13V155.212H488.039ZM488.027 161.839V165.99H480.092V161.839H488.027ZM481.476 162.943V164.848H486.63V162.943H481.476ZM492.515 155.364C494.038 155.364 495.155 156.507 495.155 158.132C495.155 159.77 494.038 160.887 492.515 160.887C490.991 160.887 489.887 159.77 489.887 158.132C489.887 156.507 490.991 155.364 492.515 155.364ZM492.515 156.57C491.715 156.57 491.144 157.167 491.156 158.132C491.144 159.084 491.715 159.706 492.515 159.693C493.302 159.706 493.873 159.084 493.873 158.132C493.873 157.167 493.302 156.57 492.515 156.57ZM499.624 154.666V161.509H498.278V158.64H497.148V161.433H495.841V154.882H497.148V157.51H498.278V154.666H499.624ZM499.624 162.055V166.13H498.215V163.185H491.766V162.055H499.624ZM511.247 160.582V161.712H500.786V160.582H511.247ZM510.066 164.759V165.901H502.081V162.562H503.49V164.759H510.066ZM506.004 155.021C508.505 155.021 510.13 155.897 510.142 157.345C510.13 158.805 508.505 159.693 506.004 159.693C503.503 159.693 501.865 158.805 501.865 157.345C501.865 155.897 503.503 155.021 506.004 155.021ZM506.004 156.151C504.341 156.151 503.325 156.583 503.338 157.345C503.325 158.119 504.341 158.551 506.004 158.538C507.68 158.551 508.682 158.119 508.682 157.345C508.682 156.583 507.68 156.151 506.004 156.151ZM238.537 184.578V185.733H228.05V184.578H232.57V182.077H229.206V176.542H237.331V182.077H233.966V184.578H238.537ZM230.589 177.672V180.973H235.934V177.672H230.589ZM248.242 179.805V180.922H240.384V176.288H248.115V177.418H241.831V179.805H248.242ZM249.499 182.191V183.334H244.929V187.104H243.532V183.334H239.013V182.191H249.499ZM262.436 175.653V182.471H261.027V179.665H259.072V178.51H261.027V175.653H262.436ZM258.552 182.763C260.989 182.763 262.474 183.562 262.474 184.946C262.474 186.33 260.989 187.13 258.552 187.13C256.127 187.13 254.641 186.33 254.654 184.946C254.641 183.562 256.127 182.763 258.552 182.763ZM258.552 183.842C256.952 183.842 256.051 184.223 256.051 184.946C256.051 185.657 256.952 186.038 258.552 186.038C260.151 186.038 261.065 185.657 261.065 184.946C261.065 184.223 260.151 183.842 258.552 183.842ZM257.041 177.621C257.041 179.018 257.968 180.427 259.745 181.023L259.034 182.141C257.758 181.709 256.85 180.833 256.355 179.754C255.847 180.979 254.889 181.957 253.524 182.445L252.788 181.328C254.629 180.693 255.606 179.145 255.606 177.634V177.545H253.219V176.402H259.415V177.545H257.041V177.621ZM272.891 175.666V179.005H274.44V180.173H272.891V183.423H271.482V175.666H272.891ZM263.7 182.052C264.563 182.052 265.56 182.045 266.594 182.014V181.315C265.318 181.157 264.512 180.541 264.512 179.64C264.512 178.586 265.617 177.926 267.28 177.938C268.956 177.926 270.047 178.586 270.047 179.64C270.047 180.535 269.26 181.144 268.003 181.303V181.963C268.981 181.918 269.965 181.842 270.885 181.722L271 182.699C268.549 183.131 265.871 183.156 263.852 183.156L263.7 182.052ZM272.891 183.918V187.13H271.482V185.022H265.147V183.918H272.891ZM270.581 176.567V177.608H263.992V176.567H266.594V175.564H268.003V176.567H270.581ZM267.28 178.891C266.391 178.878 265.858 179.145 265.871 179.64C265.858 180.109 266.391 180.414 267.28 180.401C268.168 180.414 268.702 180.109 268.702 179.64C268.702 179.145 268.168 178.878 267.28 178.891ZM283.765 175.653V180.224H285.53V181.392H283.765V187.13H282.368V175.653H283.765ZM281.48 177.418V178.548H274.713V177.418H277.43V175.818H278.839V177.418H281.48ZM278.141 179.297C279.791 179.297 281.023 180.414 281.023 182.001C281.023 183.588 279.791 184.692 278.141 184.692C276.465 184.692 275.234 183.588 275.246 182.001C275.234 180.414 276.465 179.297 278.141 179.297ZM278.141 180.452C277.24 180.452 276.592 181.062 276.592 182.001C276.592 182.94 277.24 183.537 278.141 183.524C279.017 183.537 279.664 182.94 279.677 182.001C279.664 181.062 279.017 180.452 278.141 180.452ZM295.654 175.653V187.13H294.309V175.653H295.654ZM293.217 175.933V186.584H291.884V181.303H289.84C289.167 182.623 288.088 183.766 286.463 184.705L285.663 183.702C288.043 182.299 289.129 180.503 289.345 178.192H286.247V177.05H290.741C290.741 178.161 290.608 179.202 290.297 180.173H291.884V175.933H293.217ZM305.379 176.644V182.064H299.946V176.644H305.379ZM301.33 177.773V180.947H303.996V177.773H301.33ZM308.604 175.653V179.018H310.204V180.198H308.604V184.032H307.195V175.653H308.604ZM309.061 185.759V186.901H301.253V183.22H302.663V185.759H309.061ZM321.001 180.249V181.366H310.528V180.249H321.001ZM319.757 178.396V179.513H311.861V175.945H319.656V177.075H313.27V178.396H319.757ZM319.681 182.153V185.035H313.156V185.911H319.998V187.016H311.772V184.02H318.297V183.22H311.759V182.153H319.681ZM330.307 176.605C330.307 178.053 331.92 179.513 334.37 179.83L333.811 180.973C331.863 180.681 330.314 179.722 329.571 178.421C328.816 179.722 327.273 180.681 325.344 180.973L324.785 179.83C327.21 179.513 328.822 178.053 328.822 176.605V176.021H330.307V176.605ZM334.789 181.963V183.131H330.231V187.13H328.835V183.131H324.328V181.963H334.789ZM342.203 183.118C342.203 184.07 342.641 185.073 343.625 185.695C344.622 185.029 345.085 183.988 345.098 183.118V182.648H346.482V183.118C346.469 184.324 347.18 185.441 348.691 185.924L348.005 186.952C346.888 186.578 346.145 185.848 345.745 184.934C345.377 185.835 344.698 186.641 343.663 187.054C342.572 186.66 341.886 185.886 341.531 184.972C341.118 185.854 340.388 186.571 339.322 186.952L338.623 185.924C340.109 185.403 340.82 184.235 340.832 183.118V182.648H342.203V183.118ZM347.688 175.666V182.166H346.266V175.666H347.688ZM341.429 176.275C343.194 176.275 344.514 177.393 344.514 179.005C344.514 180.604 343.194 181.722 341.429 181.722C339.652 181.722 338.331 180.604 338.331 179.005C338.331 177.393 339.652 176.275 341.429 176.275ZM341.429 177.469C340.426 177.469 339.702 178.065 339.715 179.005C339.702 179.944 340.426 180.554 341.429 180.554C342.419 180.554 343.13 179.944 343.13 179.005C343.13 178.065 342.419 177.469 341.429 177.469ZM358.092 175.653V180.008H359.857V181.163H358.092V187.143H356.683V175.653H358.092ZM354.943 176.745V177.888H350.983V183.156C352.766 183.156 354.175 183.067 355.756 182.788L355.921 183.981C354.144 184.286 352.595 184.337 350.526 184.337H349.573V176.745H354.943ZM369.448 176.707V177.812C369.435 179.233 369.435 180.833 368.991 183.232L367.569 183.08C368.014 180.846 368.014 179.214 368.026 177.837H361.171V176.707H369.448ZM370.54 184.489V185.645H360.079V184.489H363.938V180.503H365.335V184.489H370.54ZM382.931 175.628V178.218H384.543V179.36H382.931V181.887H381.522V175.628H382.931ZM382.931 182.395V185.162H376.837V185.975H383.287V187.028H375.441V184.185H381.522V183.423H375.428V182.395H382.931ZM380.697 176.58V177.659H373.892V176.58H376.596V175.564H378.005V176.58H380.697ZM377.294 178.015C378.996 178.027 380.087 178.751 380.1 179.894C380.087 181.074 378.996 181.772 377.294 181.772C375.593 181.772 374.476 181.074 374.476 179.894C374.476 178.751 375.593 178.027 377.294 178.015ZM377.294 179.03C376.406 179.03 375.847 179.348 375.847 179.894C375.847 180.452 376.406 180.757 377.294 180.757C378.183 180.757 378.754 180.452 378.754 179.894C378.754 179.348 378.183 179.03 377.294 179.03ZM395.335 175.869V180.186H396.376V175.653H397.709V187.13H396.376V181.341H395.335V186.584H394.04V175.869H395.335ZM390.384 177.05V178.192H389.216V183.08C389.571 183.055 389.971 182.998 390.409 182.89L390.523 184.07C389.647 184.261 388.975 184.273 388.416 184.273H387.921V177.05H390.384ZM393.38 177.05V178.192H392.123V183.093C392.555 183.074 393.018 183.017 393.545 182.877L393.646 184.058C392.758 184.261 392.047 184.273 391.349 184.273H390.853V177.05H393.38ZM400.889 185.099L399.823 188.653H398.617L399.277 185.099H400.889ZM406.247 179.106L407.644 181.658L409.066 179.106H410.779L408.697 182.547L410.818 186H409.116L407.644 183.512L406.209 186H404.483L406.59 182.547L404.533 179.106H406.247ZM414.988 176.453C416.804 176.44 418.137 177.596 418.149 179.221C418.137 180.858 416.804 182.001 414.988 182.001C413.186 182.001 411.84 180.858 411.84 179.221C411.84 177.596 413.186 176.44 414.988 176.453ZM414.988 177.672C413.985 177.672 413.236 178.269 413.236 179.221C413.236 180.186 413.985 180.77 414.988 180.77C416.004 180.77 416.766 180.186 416.766 179.221C416.766 178.269 416.004 177.672 414.988 177.672ZM420.828 175.653V187.143H419.419V175.653H420.828ZM411.319 183.588C413.389 183.588 416.258 183.562 418.733 183.207L418.848 184.235C416.27 184.73 413.516 184.743 411.497 184.743L411.319 183.588ZM429.588 181.798V183.651C430.585 183.601 431.588 183.512 432.534 183.372L432.648 184.413C430.071 184.883 427.316 184.908 425.297 184.908L425.12 183.766C426.015 183.759 427.068 183.753 428.179 183.715V181.798H429.588ZM432.064 177.062V178.205H429.614C429.677 179.43 430.648 180.535 432.381 180.973L431.734 182.077C430.375 181.709 429.404 180.916 428.89 179.894C428.382 180.973 427.424 181.798 426.059 182.166L425.386 181.1C427.119 180.624 428.071 179.494 428.154 178.205H425.729V177.062H428.179V175.755H429.588V177.062H432.064ZM434.628 175.653V187.143H433.219V175.653H434.628ZM446.505 181.201V182.318H436.044V181.201H440.564V179.614H441.96V181.201H446.505ZM441.973 183.232C441.973 184.54 443.382 185.695 445.743 185.987L445.236 187.079C443.363 186.806 441.941 186.032 441.249 184.908C440.545 186.032 439.129 186.806 437.276 187.079L436.768 185.987C439.116 185.695 440.526 184.54 440.526 183.232V182.94H441.973V183.232ZM441.973 176.212C441.973 177.608 443.509 178.891 445.908 179.183L445.363 180.287C443.477 180.001 441.973 179.164 441.249 177.951C440.507 179.151 439.009 180.001 437.123 180.287L436.615 179.183C438.977 178.891 440.538 177.583 440.538 176.212V175.78H441.973V176.212ZM456.071 175.653V178.129H457.671V179.31H456.071V181.887H454.662V175.653H456.071ZM452.91 176.288C452.91 179.284 450.968 181.214 447.515 182.014L446.994 180.871C449.717 180.274 451.139 178.986 451.336 177.431H447.527V176.288H452.91ZM449.508 182.458V183.651H451.006V182.458H452.288V185.949C453.551 185.372 454.104 184.261 454.116 183.232V182.331H455.462V183.207C455.462 184.312 456.046 185.467 457.379 186L456.643 187.066C455.741 186.686 455.138 186.025 454.789 185.226C454.434 186.019 453.831 186.686 452.948 187.066L452.288 186.14V186.965H448.2V182.458H449.508ZM449.508 185.873H451.006V184.705H449.508V185.873ZM468.456 181.582V182.712H457.995V181.582H468.456ZM467.275 185.759V186.901H459.29V183.562H460.699V185.759H467.275ZM463.213 176.021C465.714 176.021 467.339 176.897 467.351 178.345C467.339 179.805 465.714 180.693 463.213 180.693C460.712 180.693 459.074 179.805 459.074 178.345C459.074 176.897 460.712 176.021 463.213 176.021ZM463.213 177.151C461.55 177.151 460.534 177.583 460.547 178.345C460.534 179.119 461.55 179.551 463.213 179.538C464.888 179.551 465.891 179.119 465.891 178.345C465.891 177.583 464.888 177.151 463.213 177.151ZM470.913 183.182C470.925 181.569 471.382 181.074 472.182 180.579C472.728 180.236 473.134 179.805 473.134 179.17C473.134 178.459 472.588 178.002 471.89 178.002C471.255 178.002 470.646 178.408 470.608 179.259H469.021C469.059 177.558 470.341 176.682 471.903 176.682C473.617 176.682 474.797 177.634 474.797 179.145C474.797 180.173 474.277 180.846 473.452 181.341C472.715 181.785 472.411 182.229 472.398 183.182V183.296H470.913V183.182ZM471.7 186.102C471.154 186.102 470.71 185.657 470.71 185.111C470.71 184.578 471.154 184.134 471.7 184.134C472.22 184.134 472.677 184.578 472.677 185.111C472.677 185.657 472.22 186.102 471.7 186.102Z" fill="black"/>
<path d="M340.482 82L340.888 79.5371H338.743L338.336 82H337.245L337.651 79.5371H336.331L336.496 78.458H337.829L338.171 76.3506H336.864L337.029 75.2588H338.362L338.755 72.8086H339.847L339.454 75.2588H341.599L341.993 72.8086H343.072L342.678 75.2588H344.011L343.833 76.3506H342.5L342.158 78.458H343.478L343.288 79.5371H341.98L341.574 82H340.482ZM338.92 78.458H341.066L341.409 76.3506H339.263L338.92 78.458ZM344.925 82V80.9844L348.112 77.7725C349.115 76.7188 349.623 76.1348 349.623 75.335C349.623 74.4336 348.886 73.8496 347.921 73.8496C346.906 73.8496 346.246 74.4971 346.246 75.4746H344.925C344.913 73.7988 346.195 72.6816 347.947 72.6816C349.724 72.6816 350.943 73.7988 350.956 75.2969C350.943 76.3252 350.46 77.1377 348.734 78.8389L346.868 80.7305V80.8066H351.108V82H344.925ZM356.148 72.8086V82H354.739V74.2051H354.688L352.492 75.6396V74.3066L354.777 72.8086H356.148ZM361.747 82.127C359.842 82.127 358.484 81.0986 358.433 79.6006H359.855C359.906 80.4131 360.706 80.9209 361.734 80.9209C362.838 80.9209 363.651 80.3115 363.651 79.4229C363.651 78.5215 362.889 77.8613 361.582 77.8613H360.794V76.7188H361.582C362.623 76.7188 363.359 76.1348 363.359 75.2588C363.359 74.4209 362.737 73.8496 361.759 73.8496C360.833 73.8496 360.02 74.3574 359.982 75.1953H358.636C358.674 73.6973 360.058 72.6816 361.772 72.6816C363.575 72.6816 364.717 73.8242 364.705 75.1826C364.717 76.2236 364.07 76.9854 363.08 77.2266V77.29C364.336 77.4678 365.06 78.3057 365.06 79.4736C365.06 81.0098 363.651 82.127 361.747 82.127Z" fill="#8B8F94"/>
<path d="M283.748 101.262C283.748 104.191 284.354 107.16 286.854 108.781L285.33 110.949C283.865 110.061 282.938 108.645 282.4 106.945C281.766 108.84 280.75 110.422 279.197 111.359L277.498 109.27C280.193 107.57 281.014 104.426 281.014 101.398V98.4297H283.748V101.262ZM293.455 96.9453V114.875H290.76V96.9453H293.455ZM289.686 97.1797V114.074H287.068V105.148H284.979V102.863H287.068V97.1797H289.686ZM313.146 96.9453V103.684H315.548V105.988H313.146V114.816H310.333V96.9453H313.146ZM308.302 98.7422C308.302 104.191 306.31 108.84 300.216 111.828L298.634 109.68C302.745 107.619 304.952 104.943 305.45 101.047H299.708V98.7422H308.302ZM322.971 101.633C322.971 104.484 324.221 107.59 327.346 108.859L325.843 111.066C323.763 110.207 322.386 108.527 321.585 106.477C320.804 108.723 319.388 110.578 317.288 111.516L315.686 109.309C318.792 107.941 320.1 104.66 320.1 101.633V100.93H316.429V98.6445H326.565V100.93H322.971V101.633ZM330.921 96.9453V114.875H328.089V96.9453H330.921ZM346.471 103.391V105.422H353.268V107.648H336.92V105.422H343.658V103.391H346.471ZM345.064 108.488C348.99 108.488 351.314 109.621 351.314 111.672C351.314 113.742 348.99 114.895 345.064 114.875C341.119 114.895 338.756 113.742 338.756 111.672C338.756 109.621 341.119 108.488 345.064 108.488ZM345.064 110.617C342.682 110.617 341.607 110.93 341.627 111.672C341.607 112.473 342.682 112.805 345.064 112.805C347.369 112.805 348.502 112.473 348.502 111.672C348.502 110.93 347.369 110.617 345.064 110.617ZM351.783 97.6875V99.8945H347.213C347.721 100.93 349.312 101.965 352.623 102.258L351.646 104.445C348.15 104.123 346.002 102.902 345.064 101.242C344.137 102.902 342.018 104.123 338.541 104.445L337.564 102.258C340.836 101.965 342.428 100.93 342.955 99.8945H338.404V97.6875H351.783ZM370.222 107.414V109.602H366.609V114.875H363.757V109.602H360.339V114.875H357.507V109.602H353.836V107.414H370.222ZM368.367 97.4531V102.844H358.601V104.055H368.796V106.301H355.75V100.812H365.476V99.6992H355.711V97.4531H368.367ZM376.571 98.1172C379.423 98.0977 381.571 99.9727 381.591 102.57C381.571 105.168 379.423 107.043 376.571 107.023C373.739 107.043 371.552 105.168 371.552 102.57C371.552 99.9727 373.739 98.0977 376.571 98.1172ZM376.571 100.539C375.321 100.539 374.345 101.262 374.345 102.57C374.345 103.918 375.321 104.602 376.571 104.602C377.861 104.602 378.837 103.918 378.857 102.57C378.837 101.262 377.861 100.539 376.571 100.539ZM385.946 96.9453V114.914H383.154V96.9453H385.946ZM370.868 109.074C374.013 109.074 378.407 109.035 382.196 108.508L382.411 110.539C378.486 111.301 374.286 111.34 371.181 111.34L370.868 109.074ZM408.235 105.285V107.492H391.848V105.285H398.664V103.938H393.801V97.7266H406.301V99.9141H396.614V101.73H406.379V103.938H401.438V105.285H408.235ZM399.993 108.254C403.899 108.254 406.243 109.445 406.243 111.594C406.243 113.703 403.899 114.914 399.993 114.914C396.067 114.914 393.684 113.703 393.684 111.594C393.684 109.445 396.067 108.254 399.993 108.254ZM399.993 110.383C397.629 110.383 396.536 110.773 396.555 111.594C396.536 112.434 397.629 112.766 399.993 112.766C402.297 112.766 403.43 112.434 403.43 111.594C403.43 110.773 402.297 110.383 399.993 110.383ZM423.959 96.9648V110.031H421.166V103.762H418.471V101.496H421.166V96.9648H423.959ZM424.369 112.336V114.582H411.947V108.898H414.76V112.336H424.369ZM415.717 100.402C415.717 102.414 416.83 104.621 419.74 105.559L418.373 107.785C416.41 107.16 415.092 105.92 414.311 104.387C413.529 106.086 412.152 107.453 410.072 108.117L408.627 105.852C411.693 104.934 412.846 102.59 412.846 100.383V100.344H409.408V98.0977H419.135V100.344H415.717V100.402Z" fill="black"/>
<rect x="135" y="133" width="430" height="1" fill="#EAEAEA"/>
<g clip-path="url(#clip0_1555_1887)">
<path d="M252.561 245.645L256.106 250.586L254.215 250.333L250.676 245.387L252.561 245.645Z" fill="#D84905"/>
<path d="M293.203 216.176C294.381 217.824 295.565 219.473 296.742 221.122C299.104 224.419 300.378 228.463 300.372 232.789L296.833 227.843C296.833 223.512 295.565 219.467 293.203 216.176Z" fill="url(#paint0_linear_1555_1887)"/>
<path d="M296.832 227.842L300.371 232.788L298.57 234.126L295.031 229.186L296.832 227.842Z" fill="#F67205"/>
<path d="M278.887 251.992L282.427 256.938L281.656 258.185L278.117 253.239L278.887 251.992Z" fill="#D84905"/>
<path d="M278.116 253.239L281.656 258.185C276.508 260.15 270.93 260.61 265.749 259.133C261.774 257.996 258.529 255.859 256.145 253.061L252.605 248.115C254.99 250.913 258.234 253.05 262.21 254.187C267.391 255.664 272.969 255.204 278.116 253.239Z" fill="url(#paint1_linear_1555_1887)"/>
<path d="M280.178 252.36L283.723 257.306L282.426 256.938L278.887 251.992L280.178 252.36Z" fill="#F69D05"/>
<path d="M296.759 229.674L300.298 234.62C300.077 237.303 299.369 240.06 298.135 242.8C295.207 249.303 289.878 254.399 283.723 257.305L280.184 252.359C286.345 249.452 291.668 244.363 294.595 237.854C295.83 235.114 296.538 232.357 296.759 229.674Z" fill="url(#paint2_linear_1555_1887)"/>
<path style="mix-blend-mode:overlay" opacity="0.7" d="M296.974 229.956C296.747 232.639 296.045 235.396 294.811 238.136C291.883 244.639 286.554 249.734 280.399 252.641L279.102 252.274L278.332 253.52C273.185 255.485 267.607 255.944 262.425 254.468C258.45 253.331 255.199 251.194 252.821 248.396L252.776 245.926L250.884 245.673C247.617 240.055 247.204 232.696 250.454 225.481C251.422 223.332 252.657 221.333 254.09 219.518C255.149 219.053 256.253 218.386 256.315 218.352L256.638 216.697C262.635 210.844 270.953 207.615 278.853 208.402L280.558 209.804L285.354 210.051C292.767 213.216 297.059 220.19 297.048 228.135L295.247 229.473L296.974 229.967V229.956Z" fill="url(#paint3_linear_1555_1887)"/>
<path d="M296.759 229.675C296.533 232.357 295.83 235.115 294.596 237.855C291.668 244.358 286.34 249.453 280.184 252.36L278.887 251.992L278.117 253.239C272.97 255.203 267.392 255.663 262.21 254.187C258.235 253.049 254.985 250.912 252.606 248.115L252.561 245.644L250.67 245.392C247.402 239.773 246.989 232.415 250.239 225.199C251.208 223.051 252.442 221.052 253.875 219.237C254.934 218.771 256.038 218.105 256.1 218.07L256.423 216.416C262.426 210.557 270.739 207.328 278.638 208.115L280.343 209.517L285.139 209.764C292.552 212.929 296.844 219.903 296.833 227.848L295.032 229.186L296.759 229.68V229.675Z" fill="url(#paint4_linear_1555_1887)"/>
<path style="mix-blend-mode:overlay" opacity="0.7" d="M279.386 214.935C288.299 217.48 292.201 226.93 288.101 236.041C284.001 245.151 273.44 250.471 264.527 247.926C255.614 245.381 251.706 235.931 255.812 226.82C259.917 217.71 270.473 212.39 279.392 214.935H279.386Z" fill="url(#paint5_linear_1555_1887)"/>
<path d="M279.851 215.033C288.764 217.577 292.666 227.027 288.566 236.138C284.466 245.249 273.905 250.569 264.992 248.024C256.079 245.479 252.171 236.023 256.277 226.918C260.382 217.807 270.938 212.488 279.857 215.033H279.851Z" fill="url(#paint6_linear_1555_1887)"/>
<path d="M266.402 248.304C257.488 245.76 253.581 236.31 257.687 227.199C261.486 218.766 270.824 213.578 279.262 214.877C270.473 212.722 260.286 218.007 256.271 226.917C252.165 236.028 256.073 245.478 264.986 248.023C265.643 248.212 266.311 248.35 266.985 248.454C266.787 248.408 266.594 248.356 266.396 248.304H266.402Z" fill="#BA3E05"/>
<path d="M282.619 227.595C282.149 227.469 281.175 227.204 279.352 227.957C281.033 226.877 281.464 225.889 281.673 225.401C282.449 223.602 281.651 221.764 279.895 221.287C278.734 220.971 277.443 221.333 276.481 222.138C276.333 221.035 275.592 220.121 274.431 219.805C272.675 219.329 270.625 220.391 269.855 222.195C269.646 222.678 269.221 223.671 269.719 225.343C268.858 223.861 267.89 223.597 267.414 223.465C265.659 222.988 263.615 224.056 262.839 225.854C262.329 227.043 262.499 228.256 263.184 229.077C262.006 229.387 260.942 230.26 260.427 231.45C259.651 233.248 260.444 235.092 262.199 235.568C262.669 235.695 263.643 235.959 265.466 235.207C263.785 236.287 263.354 237.275 263.145 237.763C262.369 239.561 263.167 241.405 264.923 241.882C266.084 242.198 267.375 241.836 268.343 241.032C268.485 242.135 269.227 243.054 270.387 243.37C272.143 243.846 274.193 242.778 274.969 240.98C275.178 240.497 275.603 239.504 275.105 237.832C275.965 239.314 276.934 239.578 277.409 239.71C279.165 240.187 281.215 239.119 281.991 237.321C282.5 236.131 282.325 234.919 281.639 234.104C282.817 233.788 283.888 232.914 284.403 231.725C285.179 229.927 284.38 228.083 282.625 227.606L282.619 227.595Z" fill="url(#paint7_linear_1555_1887)"/>
<path style="mix-blend-mode:overlay" opacity="0.5" d="M289.017 247.96C285.404 251.567 282.041 254.043 281.508 253.492C280.97 252.94 283.468 249.568 287.081 245.96C290.694 242.353 294.057 239.877 294.59 240.428C295.127 240.98 292.63 244.352 289.017 247.96Z" fill="url(#paint8_radial_1555_1887)"/>
<path style="mix-blend-mode:overlay" opacity="0.4" d="M291.623 214.279L252.584 247.064L252.601 248.115C254.985 250.913 258.23 253.05 262.205 254.187C263.1 254.44 264.006 254.635 264.918 254.779L295.298 229.267L295.027 229.187L296.827 227.848C296.827 222.643 294.981 217.858 291.623 214.285V214.279Z" fill="url(#paint9_linear_1555_1887)"/>
<path style="mix-blend-mode:overlay" opacity="0.4" d="M280.344 209.516L278.639 208.115C276.323 207.885 273.967 208.006 271.645 208.431L249.51 227.02C248.218 230.553 247.788 234.08 248.122 237.389L281.255 209.562L280.344 209.516Z" fill="url(#paint10_linear_1555_1887)"/>
<path d="M405.19 245.645L408.729 250.586L406.844 250.333L403.299 245.387L405.19 245.645Z" fill="#D8AA05"/>
<path d="M445.826 216.176C447.01 217.824 448.188 219.473 449.365 221.122C451.727 224.419 453.001 228.463 452.995 232.789L449.456 227.843C449.456 223.512 448.188 219.467 445.826 216.176Z" fill="url(#paint11_linear_1555_1887)"/>
<path d="M449.455 227.842L453 232.788L451.199 234.126L447.654 229.186L449.455 227.842Z" fill="#8B7F17"/>
<path d="M431.51 251.992L435.055 256.938L434.285 258.185L430.74 253.239L431.51 251.992Z" fill="#D8AA05"/>
<path d="M430.739 253.239L434.279 258.185C429.131 260.15 423.553 260.61 418.372 259.133C414.397 257.996 411.146 255.859 408.768 253.061L405.229 248.115C407.613 250.913 410.857 253.05 414.833 254.187C420.014 255.664 425.592 255.204 430.739 253.239Z" fill="url(#paint12_linear_1555_1887)"/>
<path d="M432.807 252.36L436.346 257.306L435.055 256.938L431.51 251.992L432.807 252.36Z" fill="#F6DE05"/>
<path d="M449.381 229.674L452.921 234.62C452.7 237.303 451.992 240.06 450.758 242.8C447.83 249.303 442.501 254.399 436.34 257.305L432.801 252.359C438.962 249.452 444.285 244.363 447.213 237.854C448.447 235.114 449.149 232.357 449.376 229.674H449.381Z" fill="url(#paint13_linear_1555_1887)"/>
<path style="mix-blend-mode:overlay" opacity="0.7" d="M449.597 229.956C449.371 232.639 448.668 235.396 447.434 238.136C444.506 244.639 439.177 249.734 433.022 252.641L431.725 252.274L430.955 253.52C425.808 255.485 420.23 255.944 415.048 254.468C411.073 253.331 407.823 251.194 405.444 248.396L405.399 245.926L403.507 245.673C400.24 240.055 399.827 232.696 403.077 225.481C404.045 223.332 405.28 221.333 406.713 219.518C407.772 219.053 408.881 218.386 408.938 218.352L409.261 216.697C415.258 210.844 423.576 207.615 431.47 208.402L433.175 209.804L437.971 210.051C445.39 213.216 449.676 220.19 449.665 228.135L447.864 229.473L449.591 229.967L449.597 229.956Z" fill="url(#paint14_linear_1555_1887)"/>
<path d="M449.383 229.675C449.157 232.357 448.454 235.115 447.22 237.855C444.292 244.358 438.963 249.453 432.808 252.36L431.511 251.992L430.741 253.239C425.594 255.204 420.016 255.663 414.834 254.187C410.859 253.049 407.614 250.912 405.23 248.115L405.185 245.645L403.294 245.392C400.026 239.774 399.613 232.415 402.857 225.2C403.826 223.051 405.06 221.052 406.493 219.237C407.552 218.771 408.662 218.105 408.718 218.071L409.041 216.416C415.038 210.562 423.357 207.334 431.256 208.121L432.961 209.523L437.757 209.77C445.17 212.935 449.462 219.909 449.451 227.854L447.65 229.192L449.377 229.686L449.383 229.675Z" fill="url(#paint15_linear_1555_1887)"/>
<path style="mix-blend-mode:overlay" opacity="0.7" d="M432.015 214.935C440.928 217.48 444.836 226.93 440.73 236.041C436.625 245.151 426.069 250.471 417.156 247.926C408.243 245.381 404.335 235.931 408.441 226.82C412.546 217.71 423.102 212.39 432.015 214.935Z" fill="url(#paint16_linear_1555_1887)"/>
<path d="M432.472 215.033C441.385 217.577 445.293 227.027 441.187 236.138C437.082 245.249 426.526 250.569 417.613 248.024C408.7 245.479 404.792 236.023 408.898 226.918C413.003 217.807 423.559 212.488 432.472 215.033Z" fill="url(#paint17_linear_1555_1887)"/>
<path d="M419.025 248.304C410.111 245.76 406.204 236.31 410.31 227.199C414.109 218.766 423.447 213.578 431.885 214.877C423.096 212.722 412.909 218.007 408.894 226.917C404.788 236.028 408.696 245.478 417.609 248.023C418.266 248.212 418.934 248.35 419.608 248.454C419.41 248.408 419.217 248.356 419.019 248.304H419.025Z" fill="#BA9205"/>
<path d="M435.514 230.582L431.431 227.681L430.259 222.723C430.118 222.143 429.766 221.775 429.313 221.655C428.86 221.528 428.3 221.655 427.745 222.04L422.994 225.383L417.535 225.687C416.261 225.762 415.434 226.767 415.7 227.928L416.85 232.891L414.652 238.038C414.233 239.015 414.573 239.819 415.4 240.043C415.587 240.095 415.796 240.118 416.034 240.101L421.493 239.825L425.593 242.697C425.768 242.824 425.955 242.91 426.142 242.956C426.975 243.18 427.858 242.714 428.283 241.738L430.508 236.596L435.242 233.23C436.347 232.443 436.471 231.248 435.52 230.57L435.514 230.582Z" fill="url(#paint18_linear_1555_1887)"/>
<path style="mix-blend-mode:overlay" opacity="0.5" d="M441.64 247.96C438.027 251.567 434.664 254.043 434.132 253.492C433.594 252.94 436.091 249.568 439.704 245.96C443.317 242.353 446.68 239.877 447.213 240.428C447.751 240.98 445.253 244.352 441.64 247.96Z" fill="url(#paint19_radial_1555_1887)"/>
<path style="mix-blend-mode:overlay" opacity="0.4" d="M444.252 214.279L405.213 247.064L405.23 248.115C407.614 250.913 410.859 253.05 414.834 254.187C415.729 254.44 416.635 254.635 417.546 254.779L447.927 229.267L447.656 229.187L449.456 227.848C449.456 222.643 447.61 217.858 444.252 214.285V214.279Z" fill="url(#paint20_linear_1555_1887)"/>
<path style="mix-blend-mode:overlay" opacity="0.4" d="M432.967 209.516L431.262 208.115C428.946 207.885 426.59 208.006 424.269 208.431L402.133 227.02C400.842 230.553 400.411 234.08 400.745 237.389L433.878 209.562L432.967 209.516Z" fill="url(#paint21_linear_1555_1887)"/>
<path d="M328.561 245.645L332.106 250.586L330.215 250.333L326.676 245.387L328.561 245.645Z" fill="#676767"/>
<path d="M369.203 216.176C370.381 217.824 371.565 219.473 372.742 221.122C375.104 224.419 376.378 228.463 376.372 232.789L372.833 227.843C372.833 223.512 371.565 219.467 369.203 216.176Z" fill="url(#paint22_linear_1555_1887)"/>
<path d="M372.832 227.842L376.371 232.788L374.576 234.126L371.031 229.186L372.832 227.842Z" fill="#635F5C"/>
<path d="M354.887 251.992L358.427 256.938L357.662 258.185L354.117 253.239L354.887 251.992Z" fill="#676767"/>
<path d="M354.118 253.239L357.658 258.185C352.51 260.15 346.932 260.61 341.751 259.133C337.775 257.996 334.531 255.859 332.147 253.061L328.607 248.115C330.991 250.913 334.236 253.05 338.212 254.187C343.393 255.664 348.971 255.204 354.118 253.239Z" fill="url(#paint23_linear_1555_1887)"/>
<path d="M356.178 252.36L359.723 257.306L358.426 256.938L354.887 251.992L356.178 252.36Z" fill="#9C9C9C"/>
<path d="M372.759 229.674L376.298 234.62C376.077 237.303 375.369 240.06 374.135 242.8C371.207 249.303 365.878 254.399 359.723 257.305L356.184 252.359C362.345 249.452 367.668 244.363 370.595 237.854C371.83 235.114 372.538 232.357 372.759 229.674Z" fill="url(#paint24_linear_1555_1887)"/>
<path style="mix-blend-mode:overlay" opacity="0.7" d="M372.974 229.956C372.747 232.638 372.045 235.396 370.811 238.136C367.883 244.639 362.554 249.734 356.393 252.641L355.096 252.273L354.326 253.52C349.179 255.485 343.601 255.944 338.419 254.468C334.444 253.33 331.194 251.193 328.815 248.396L328.77 245.926L326.879 245.673C323.611 240.055 323.198 232.696 326.448 225.481C327.417 223.332 328.651 221.333 330.084 219.518C331.143 219.053 332.247 218.386 332.309 218.352L332.632 216.697C338.64 210.838 346.953 207.609 354.853 208.396L356.557 209.798L361.354 210.045C368.766 213.21 373.053 220.184 373.047 228.129L371.247 229.467L372.974 229.962V229.956Z" fill="url(#paint25_linear_1555_1887)"/>
<path d="M372.759 229.675C372.533 232.357 371.83 235.115 370.596 237.855C367.668 244.358 362.34 249.453 356.184 252.36L354.887 251.992L354.117 253.239C348.97 255.203 343.392 255.663 338.21 254.187C334.235 253.049 330.99 250.912 328.606 248.115L328.561 245.644L326.67 245.392C323.402 239.773 322.989 232.415 326.239 225.199C327.208 223.051 328.442 221.052 329.875 219.237C330.934 218.771 332.044 218.105 332.1 218.07L332.423 216.416C338.426 210.557 346.739 207.328 354.638 208.115L356.343 209.517L361.139 209.764C368.557 212.929 372.844 219.903 372.833 227.848L371.032 229.186L372.759 229.68V229.675Z" fill="url(#paint26_linear_1555_1887)"/>
<path style="mix-blend-mode:overlay" opacity="0.7" d="M355.386 214.935C364.299 217.48 368.207 226.93 364.101 236.041C359.996 245.151 349.44 250.471 340.527 247.926C331.614 245.381 327.706 235.931 331.812 226.82C335.917 217.71 346.473 212.39 355.386 214.935Z" fill="url(#paint27_linear_1555_1887)"/>
<path d="M355.851 215.033C364.764 217.577 368.672 227.027 364.566 236.138C360.461 245.249 349.905 250.569 340.992 248.024C332.079 245.479 328.171 236.023 332.277 226.918C336.382 217.807 346.938 212.488 355.851 215.033Z" fill="url(#paint28_linear_1555_1887)"/>
<path d="M342.402 248.304C333.488 245.76 329.581 236.31 333.687 227.199C337.486 218.766 346.824 213.578 355.262 214.877C346.473 212.722 336.286 218.007 332.271 226.917C328.165 236.028 332.073 245.478 340.986 248.023C341.643 248.212 342.311 248.35 342.985 248.454C342.787 248.408 342.594 248.356 342.396 248.304H342.402Z" fill="#737373"/>
<path d="M358.052 223.43C355.798 222.786 353.267 223.459 351.359 225.004C351.115 222.85 349.699 221.046 347.446 220.402C344.042 219.432 340.005 221.465 338.442 224.941C337.785 226.406 336.035 230.283 341.743 237.969L344.093 241.135L348.437 239.877C358.975 236.832 360.725 232.949 361.382 231.49C362.95 228.014 361.455 224.401 358.052 223.43Z" fill="url(#paint29_linear_1555_1887)"/>
<path style="mix-blend-mode:overlay" opacity="0.5" d="M365.017 247.96C361.404 251.567 358.041 254.043 357.508 253.492C356.97 252.94 359.468 249.568 363.081 245.96C366.694 242.353 370.057 239.877 370.59 240.428C371.127 240.98 368.63 244.352 365.017 247.96Z" fill="url(#paint30_radial_1555_1887)"/>
<path style="mix-blend-mode:overlay" opacity="0.4" d="M367.629 214.279L328.59 247.064L328.607 248.115C330.991 250.913 334.236 253.05 338.211 254.187C339.106 254.44 340.012 254.635 340.923 254.779L371.304 229.267L371.033 229.187L372.833 227.848C372.833 222.643 370.987 217.858 367.629 214.285V214.279Z" fill="url(#paint31_linear_1555_1887)"/>
<path style="mix-blend-mode:overlay" opacity="0.4" d="M356.343 209.516L354.638 208.115C352.322 207.885 349.966 208.006 347.645 208.431L325.503 227.026C324.218 230.559 323.782 234.092 324.116 237.395L357.254 209.562L356.343 209.516Z" fill="url(#paint32_linear_1555_1887)"/>
</g>
<path d="M608 76C608 69.3726 613.373 64 620 64H700V290H620C613.373 290 608 284.627 608 278V76Z" fill="#1AD283"/>
<path d="M92 76C92 69.3726 86.6274 64 80 64H0V290H80C86.6274 290 92 284.627 92 278V76Z" fill="#1AD283"/>
<path d="M80.1291 44.1233L67.4491 40.7257L63.9474 53.7942L58.3978 52.3072L61.8995 39.2387L49.2195 35.8411L50.524 30.9725L63.204 34.3701L66.68 21.3976L72.2296 22.8846L68.7537 35.8571L81.4337 39.2547L80.1291 44.1233Z" fill="#1AD283"/>
<path d="M589.065 303.062L582.725 301.363L580.974 307.897L578.199 307.154L579.95 300.619L573.61 298.921L574.262 296.486L580.602 298.185L582.34 291.699L585.115 292.442L583.377 298.929L589.717 300.627L589.065 303.062Z" fill="#1AD283"/>
<path d="M589.203 296.867L583.518 300.149L586.901 306.007L584.413 307.444L581.03 301.585L575.346 304.867L574.086 302.685L579.77 299.403L576.413 293.587L578.901 292.151L582.258 297.966L587.942 294.685L589.203 296.867Z" fill="#1AD283"/>
<defs>
<filter id="filter0_d_1555_1887" x="90" y="24" width="520" height="285" filterUnits="userSpaceOnUse" color-interpolation-filters="sRGB">
<feFlood flood-opacity="0" result="BackgroundImageFix"/>
<feColorMatrix in="SourceAlpha" type="matrix" values="0 0 0 0 0 0 0 0 0 0 0 0 0 0 0 0 0 0 127 0" result="hardAlpha"/>
<feOffset dy="1"/>
<feGaussianBlur stdDeviation="10"/>
<feComposite in2="hardAlpha" operator="out"/>
<feColorMatrix type="matrix" values="0 0 0 0 0 0 0 0 0 0 0 0 0 0 0 0 0 0 0.16 0"/>
<feBlend mode="normal" in2="BackgroundImageFix" result="effect1_dropShadow_1555_1887"/>
<feBlend mode="normal" in="SourceGraphic" in2="effect1_dropShadow_1555_1887" result="shape"/>
</filter>
<linearGradient id="paint0_linear_1555_1887" x1="258.66" y1="258.042" x2="299.028" y2="223.51" gradientUnits="userSpaceOnUse">
<stop stop-color="#D13F05"/>
<stop offset="0.29" stop-color="#F67205"/>
<stop offset="0.37" stop-color="#F67605"/>
<stop offset="0.45" stop-color="#F68405"/>
<stop offset="0.54" stop-color="#F69B05"/>
<stop offset="0.56" stop-color="#F6A205"/>
<stop offset="0.6" stop-color="#F69005"/>
<stop offset="0.64" stop-color="#F67F05"/>
<stop offset="0.69" stop-color="#F67505"/>
<stop offset="0.76" stop-color="#F67205"/>
<stop offset="1" stop-color="#D13F05"/>
</linearGradient>
<linearGradient id="paint1_linear_1555_1887" x1="259.916" y1="259.501" x2="300.278" y2="224.975" gradientUnits="userSpaceOnUse">
<stop stop-color="#D13F05"/>
<stop offset="0.29" stop-color="#F67205"/>
<stop offset="0.37" stop-color="#F67605"/>
<stop offset="0.45" stop-color="#F68405"/>
<stop offset="0.54" stop-color="#F69B05"/>
<stop offset="0.56" stop-color="#F6A205"/>
<stop offset="0.6" stop-color="#F69005"/>
<stop offset="0.64" stop-color="#F67F05"/>
<stop offset="0.69" stop-color="#F67505"/>
<stop offset="0.76" stop-color="#F67205"/>
<stop offset="1" stop-color="#D13F05"/>
</linearGradient>
<linearGradient id="paint2_linear_1555_1887" x1="265.511" y1="266.043" x2="305.879" y2="231.516" gradientUnits="userSpaceOnUse">
<stop stop-color="#D13F05"/>
<stop offset="0.29" stop-color="#F67205"/>
<stop offset="0.37" stop-color="#F67605"/>
<stop offset="0.45" stop-color="#F68405"/>
<stop offset="0.54" stop-color="#F69B05"/>
<stop offset="0.56" stop-color="#F6A205"/>
<stop offset="0.6" stop-color="#F69005"/>
<stop offset="0.64" stop-color="#F67F05"/>
<stop offset="0.69" stop-color="#F67505"/>
<stop offset="0.76" stop-color="#F67205"/>
<stop offset="1" stop-color="#D13F05"/>
</linearGradient>
<linearGradient id="paint3_linear_1555_1887" x1="250.76" y1="249.855" x2="295.307" y2="214.135" gradientUnits="userSpaceOnUse">
<stop stop-color="white" stop-opacity="0"/>
<stop offset="0.26" stop-color="white"/>
<stop offset="0.76" stop-color="white"/>
<stop offset="1" stop-color="white" stop-opacity="0"/>
</linearGradient>
<linearGradient id="paint4_linear_1555_1887" x1="289.454" y1="238.831" x2="244.588" y2="220.146" gradientUnits="userSpaceOnUse">
<stop stop-color="#FFAF02"/>
<stop offset="1" stop-color="#F56D05"/>
</linearGradient>
<linearGradient id="paint5_linear_1555_1887" x1="256.061" y1="216.015" x2="282.34" y2="240.777" gradientUnits="userSpaceOnUse">
<stop stop-color="white" stop-opacity="0"/>
<stop offset="0.26" stop-color="white"/>
<stop offset="0.76" stop-color="white"/>
<stop offset="1" stop-color="white" stop-opacity="0"/>
</linearGradient>
<linearGradient id="paint6_linear_1555_1887" x1="254.64" y1="231.531" x2="290.197" y2="231.531" gradientUnits="userSpaceOnUse">
<stop stop-color="#CF4505"/>
<stop offset="1" stop-color="#E45905"/>
</linearGradient>
<linearGradient id="paint7_linear_1555_1887" x1="282.63" y1="235.965" x2="262.111" y2="227.421" gradientUnits="userSpaceOnUse">
<stop stop-color="#FFAF02"/>
<stop offset="1" stop-color="#F56D05"/>
</linearGradient>
<radialGradient id="paint8_radial_1555_1887" cx="0" cy="0" r="1" gradientUnits="userSpaceOnUse" gradientTransform="translate(295.762 254.512) rotate(45.8807) scale(1.33942 9.23887)">
<stop stop-color="white"/>
<stop offset="0.09" stop-color="white" stop-opacity="0.96"/>
<stop offset="0.24" stop-color="white" stop-opacity="0.85"/>
<stop offset="0.43" stop-color="white" stop-opacity="0.66"/>
<stop offset="0.66" stop-color="white" stop-opacity="0.41"/>
<stop offset="0.93" stop-color="white" stop-opacity="0.09"/>
<stop offset="1" stop-color="white" stop-opacity="0"/>
</radialGradient>
<linearGradient id="paint9_linear_1555_1887" x1="266.571" y1="224.574" x2="282.869" y2="243.421" gradientUnits="userSpaceOnUse">
<stop stop-color="white"/>
<stop offset="1" stop-color="white" stop-opacity="0"/>
</linearGradient>
<linearGradient id="paint10_linear_1555_1887" x1="257.222" y1="215.801" x2="265.926" y2="224.5" gradientUnits="userSpaceOnUse">
<stop stop-color="white"/>
<stop offset="1" stop-color="white" stop-opacity="0"/>
</linearGradient>
<linearGradient id="paint11_linear_1555_1887" x1="411.289" y1="258.037" x2="451.656" y2="223.51" gradientUnits="userSpaceOnUse">
<stop stop-color="#FFBA33"/>
<stop offset="0.29" stop-color="#F6CF05"/>
<stop offset="0.37" stop-color="#F6C105"/>
<stop offset="0.45" stop-color="#F6C105"/>
<stop offset="0.54" stop-color="#F69B05"/>
<stop offset="0.56" stop-color="#F6CF05"/>
<stop offset="0.6" stop-color="#F6C105"/>
<stop offset="0.64" stop-color="#FFB320"/>
<stop offset="0.69" stop-color="#FFD914"/>
<stop offset="0.76" stop-color="#FFC52F"/>
<stop offset="1" stop-color="#D1A405"/>
</linearGradient>
<linearGradient id="paint12_linear_1555_1887" x1="412.539" y1="259.501" x2="452.907" y2="224.975" gradientUnits="userSpaceOnUse">
<stop stop-color="#B18411"/>
<stop offset="0.0001" stop-color="#E2CC05"/>
<stop offset="0.265725" stop-color="#F6C105"/>
<stop offset="0.37" stop-color="#F6DE05"/>
<stop offset="0.421875" stop-color="#F6C105"/>
<stop offset="0.54" stop-color="#F69B05"/>
<stop offset="0.5401" stop-color="#F6C105"/>
<stop offset="0.6" stop-color="#F6C105"/>
<stop offset="0.64" stop-color="#F6C105"/>
<stop offset="0.69" stop-color="#F6B305"/>
<stop offset="0.76" stop-color="#F6CF05"/>
<stop offset="1" stop-color="#D1B005"/>
</linearGradient>
<linearGradient id="paint13_linear_1555_1887" x1="418.14" y1="266.049" x2="458.502" y2="231.516" gradientUnits="userSpaceOnUse">
<stop stop-color="#FFB11A"/>
<stop offset="0.29" stop-color="#F6CF05"/>
<stop offset="0.37" stop-color="#F6B305"/>
<stop offset="0.45" stop-color="#F6C105"/>
<stop offset="0.54" stop-color="#F6DE05"/>
<stop offset="0.56" stop-color="#F6DE05"/>
<stop offset="0.6" stop-color="#F6C105"/>
<stop offset="0.64" stop-color="#F6DE05"/>
<stop offset="0.69" stop-color="#F6EC05"/>
<stop offset="0.76" stop-color="#F6EC05"/>
<stop offset="1" stop-color="#FFBD13"/>
</linearGradient>
<linearGradient id="paint14_linear_1555_1887" x1="403.383" y1="249.855" x2="447.935" y2="214.135" gradientUnits="userSpaceOnUse">
<stop stop-color="white" stop-opacity="0"/>
<stop offset="0.26" stop-color="white"/>
<stop offset="0.76" stop-color="white"/>
<stop offset="1" stop-color="white" stop-opacity="0"/>
</linearGradient>
<linearGradient id="paint15_linear_1555_1887" x1="442.084" y1="238.832" x2="397.212" y2="220.146" gradientUnits="userSpaceOnUse">
<stop stop-color="#FAFF00"/>
<stop offset="1" stop-color="#FFB015"/>
</linearGradient>
<linearGradient id="paint16_linear_1555_1887" x1="408.684" y1="216.015" x2="434.969" y2="240.777" gradientUnits="userSpaceOnUse">
<stop stop-color="white" stop-opacity="0"/>
<stop offset="0.26" stop-color="white"/>
<stop offset="0.76" stop-color="white"/>
<stop offset="1" stop-color="white" stop-opacity="0"/>
</linearGradient>
<linearGradient id="paint17_linear_1555_1887" x1="407.267" y1="208.001" x2="442.818" y2="208.001" gradientUnits="userSpaceOnUse">
<stop stop-color="#ECB423"/>
<stop offset="1" stop-color="#FFD911"/>
</linearGradient>
<linearGradient id="paint18_linear_1555_1887" x1="434.472" y1="236.051" x2="415.272" y2="228.051" gradientUnits="userSpaceOnUse">
<stop stop-color="#F1FF55"/>
<stop offset="1" stop-color="#FFCB14"/>
</linearGradient>
<radialGradient id="paint19_radial_1555_1887" cx="0" cy="0" r="1" gradientUnits="userSpaceOnUse" gradientTransform="translate(446.757 252.903) rotate(45.8807) scale(1.33885 9.23493)">
<stop stop-color="white"/>
<stop offset="0.09" stop-color="white" stop-opacity="0.96"/>
<stop offset="0.24" stop-color="white" stop-opacity="0.85"/>
<stop offset="0.43" stop-color="white" stop-opacity="0.66"/>
<stop offset="0.66" stop-color="white" stop-opacity="0.41"/>
<stop offset="0.93" stop-color="white" stop-opacity="0.09"/>
<stop offset="1" stop-color="white" stop-opacity="0"/>
</radialGradient>
<linearGradient id="paint20_linear_1555_1887" x1="419.2" y1="224.574" x2="435.493" y2="243.421" gradientUnits="userSpaceOnUse">
<stop stop-color="white"/>
<stop offset="1" stop-color="white" stop-opacity="0"/>
</linearGradient>
<linearGradient id="paint21_linear_1555_1887" x1="409.851" y1="215.801" x2="418.549" y2="224.5" gradientUnits="userSpaceOnUse">
<stop stop-color="white"/>
<stop offset="1" stop-color="white" stop-opacity="0"/>
</linearGradient>
<linearGradient id="paint22_linear_1555_1887" x1="334.66" y1="258.042" x2="375.033" y2="223.51" gradientUnits="userSpaceOnUse">
<stop stop-color="#9E9E9E"/>
<stop offset="0.29" stop-color="#B8B8B8"/>
<stop offset="0.37" stop-color="#D7D7D7"/>
<stop offset="0.45" stop-color="#C3C3C3"/>
<stop offset="0.54" stop-color="#F69B05"/>
<stop offset="0.56" stop-color="#C9C9C9"/>
<stop offset="0.6" stop-color="#BDBDBC"/>
<stop offset="0.64" stop-color="#CDCDCD"/>
<stop offset="0.69" stop-color="#D2D2D2"/>
<stop offset="0.76" stop-color="#D7D7D7"/>
<stop offset="1" stop-color="#BDBDBD"/>
</linearGradient>
<linearGradient id="paint23_linear_1555_1887" x1="335.918" y1="259.501" x2="376.286" y2="224.975" gradientUnits="userSpaceOnUse">
<stop stop-color="#CCCCCC"/>
<stop offset="0.29" stop-color="#A8A8A8"/>
<stop offset="0.37" stop-color="#676767"/>
<stop offset="0.45" stop-color="#585858"/>
<stop offset="0.54" stop-color="#49330E"/>
<stop offset="0.56" stop-color="#4E4E4E"/>
<stop offset="0.6" stop-color="#6A6A6A"/>
<stop offset="0.64" stop-color="#5C5C5C"/>
<stop offset="0.69" stop-color="#555555"/>
<stop offset="0.76" stop-color="#4D4D4D"/>
<stop offset="1" stop-color="#676767"/>
</linearGradient>
<linearGradient id="paint24_linear_1555_1887" x1="341.511" y1="266.043" x2="381.879" y2="231.516" gradientUnits="userSpaceOnUse">
<stop stop-color="#575757"/>
<stop offset="0.29" stop-color="#BBBBBB"/>
<stop offset="0.37" stop-color="#C6C6C6"/>
<stop offset="0.45" stop-color="#D3D3D3"/>
<stop offset="0.515625" stop-color="#C5C5C5"/>
<stop offset="0.54" stop-color="#DEDEDE"/>
<stop offset="0.5999" stop-color="#D9D9D9"/>
<stop offset="0.6" stop-color="#D7D7D7"/>
<stop offset="0.64" stop-color="#D3D3D3"/>
<stop offset="0.69" stop-color="#AFAFAF"/>
<stop offset="0.76" stop-color="#9F9F9F"/>
<stop offset="1" stop-color="#636262"/>
</linearGradient>
<linearGradient id="paint25_linear_1555_1887" x1="326.76" y1="249.855" x2="371.306" y2="214.134" gradientUnits="userSpaceOnUse">
<stop stop-color="white" stop-opacity="0"/>
<stop offset="0.26" stop-color="white"/>
<stop offset="0.76" stop-color="white"/>
<stop offset="1" stop-color="white" stop-opacity="0"/>
</linearGradient>
<linearGradient id="paint26_linear_1555_1887" x1="365.454" y1="238.831" x2="320.588" y2="220.146" gradientUnits="userSpaceOnUse">
<stop stop-color="#E9E9E9"/>
<stop offset="1" stop-color="#8C8C8C"/>
</linearGradient>
<linearGradient id="paint27_linear_1555_1887" x1="332.061" y1="216.015" x2="358.346" y2="240.777" gradientUnits="userSpaceOnUse">
<stop stop-color="#7A7A7A" stop-opacity="0"/>
<stop offset="0.26" stop-color="white"/>
<stop offset="0.76" stop-color="white"/>
<stop offset="1" stop-color="white" stop-opacity="0"/>
</linearGradient>
<linearGradient id="paint28_linear_1555_1887" x1="330.64" y1="208.001" x2="366.197" y2="208.001" gradientUnits="userSpaceOnUse">
<stop stop-color="#B9B9B9"/>
<stop offset="1" stop-color="#8E8E8E"/>
</linearGradient>
<linearGradient id="paint29_linear_1555_1887" x1="359.547" y1="235.89" x2="337.663" y2="226.78" gradientUnits="userSpaceOnUse">
<stop stop-color="#AAAAAA"/>
<stop offset="1" stop-color="#E9E9E9"/>
</linearGradient>
<radialGradient id="paint30_radial_1555_1887" cx="0" cy="0" r="1" gradientUnits="userSpaceOnUse" gradientTransform="translate(373.398 256.116) rotate(45.8807) scale(1.33885 9.23493)">
<stop stop-color="#7A7A7A"/>
<stop offset="0.09" stop-color="white" stop-opacity="0.96"/>
<stop offset="0.24" stop-color="white" stop-opacity="0.85"/>
<stop offset="0.43" stop-color="white" stop-opacity="0.66"/>
<stop offset="0.66" stop-color="white" stop-opacity="0.41"/>
<stop offset="0.93" stop-color="white" stop-opacity="0.09"/>
<stop offset="1" stop-color="white" stop-opacity="0"/>
</radialGradient>
<linearGradient id="paint31_linear_1555_1887" x1="342.571" y1="224.574" x2="358.87" y2="243.421" gradientUnits="userSpaceOnUse">
<stop stop-color="white"/>
<stop offset="1" stop-color="white" stop-opacity="0"/>
</linearGradient>
<linearGradient id="paint32_linear_1555_1887" x1="333.227" y1="215.801" x2="341.925" y2="224.5" gradientUnits="userSpaceOnUse">
<stop stop-color="white"/>
<stop offset="1" stop-color="white" stop-opacity="0"/>
</linearGradient>
<clipPath id="clip0_1555_1887">
<rect width="205" height="52" fill="white" transform="translate(248 208)"/>
</clipPath>
</defs>
</svg>
